<?xml version="1.0" standalone="no"?>
<!DOCTYPE svg PUBLIC "-//W3C//DTD SVG 20010904//EN"
 "http://www.w3.org/TR/2001/REC-SVG-20010904/DTD/svg10.dtd">
<svg version="1.0" xmlns="http://www.w3.org/2000/svg"
 width="2101.000000pt" height="2108.000000pt" viewBox="0 0 2101.000000 2108.000000"
 preserveAspectRatio="xMidYMid meet">

<g transform="translate(0.000000,2108.000000) scale(0.100000,-0.100000)"
fill="#000000" stroke="none">
<path d="M0 10540 l0 -10540 10505 0 10505 0 0 10540 0 10540 -10505 0 -10505
0 0 -10540z m5040 10465 c2472 -3 5330 -7 6350 -9 1020 -3 3410 -8 5310 -12
l3455 -7 31 -23 c44 -34 59 -30 83 21 19 40 41 53 41 24 0 -5 5 -15 10 -22 29
-35 120 -166 120 -174 0 -4 10 -19 23 -33 12 -14 48 -64 80 -111 32 -48 64
-92 72 -99 8 -7 15 -18 15 -24 0 -6 19 -30 42 -54 l41 -43 -7 -2477 c-3 -1362
-8 -5809 -11 -9882 -3 -4073 -8 -7419 -10 -7435 -11 -67 88 -62 -1465 -69
-1304 -5 -8174 -24 -9785 -26 -390 -1 -1236 -5 -1880 -10 -643 -5 -2440 -10
-3993 -11 l-2822 -2 -26 29 c-13 16 -35 45 -47 64 -11 19 -26 40 -32 46 -30
33 -55 65 -55 72 0 4 -12 21 -28 37 -15 17 -46 55 -69 87 -23 31 -54 68 -67
83 -14 15 -28 36 -31 46 -4 11 -11 19 -16 19 -5 0 -9 6 -9 13 0 10 56 14 272
15 149 2 275 5 280 8 5 3 36 5 70 5 34 0 68 5 74 10 9 7 20 7 34 -1 24 -13 36
-6 42 25 5 28 42 27 46 -2 2 -13 13 -24 29 -28 47 -11 614 -8 626 4 8 8 -1 11
-34 11 -24 0 -80 3 -124 6 -44 2 -103 4 -132 4 -28 -1 -54 3 -57 8 -6 9 116
22 213 22 29 0 71 5 91 11 49 15 81 6 101 -27 16 -27 17 -27 28 -7 9 18 24 22
103 28 120 9 324 9 463 0 134 -8 167 -9 270 -7 44 1 94 2 110 1 17 0 46 3 65
7 l35 7 -19 -22 c-14 -15 -31 -21 -62 -21 -24 0 -46 -5 -49 -11 -12 -18 3 -22
34 -9 22 9 39 9 63 1 18 -5 114 -11 213 -12 231 -3 275 -1 275 10 0 15 -61 25
-131 22 -74 -3 -118 11 -99 33 11 14 145 14 337 0 46 -3 90 -1 100 4 11 7 29
6 52 -2 20 -7 68 -11 106 -9 107 4 145 -4 156 -33 l9 -25 192 5 c106 3 204 5
218 5 14 1 161 -2 327 -5 309 -6 393 2 284 25 -29 6 -57 9 -62 5 -5 -3 -19 -2
-31 2 -20 6 -17 9 22 20 33 10 84 13 189 9 80 -3 147 -8 150 -11 11 -11 -26
-24 -70 -24 -68 0 -139 -11 -139 -22 0 -5 320 -9 778 -9 427 0 872 0 987 0
116 -1 347 0 515 0 168 0 978 0 1800 -1 822 0 2393 0 3490 1 2067 2 6609 4
6670 4 479 -5 814 -1 830 7 14 8 26 7 40 0 23 -12 52 -6 70 15 14 17 -17 70
-80 135 -55 57 -73 99 -60 137 13 36 -1 87 -25 92 -16 3 -17 -2 -11 -53 6 -54
5 -57 -19 -66 -35 -13 -31 -26 13 -49 40 -21 92 -80 92 -105 0 -21 -15 -20
-51 1 -24 14 -33 15 -49 5 -30 -18 -63 -15 -90 10 -16 15 -25 18 -28 10 -7
-22 -40 -34 -63 -22 -16 9 -23 8 -32 -4 -10 -13 -25 -14 -107 -5 -52 5 -201 9
-330 8 -159 -1 -249 2 -278 10 -32 9 -52 9 -77 1 -23 -8 -99 -9 -242 -4 -317
10 -375 8 -475 -16 -26 -6 -97 -9 -165 -7 -495 17 -497 17 -526 38 l-28 20
-42 -20 c-42 -20 -125 -24 -502 -22 -33 0 -150 0 -260 1 -110 0 -214 -2 -231
-6 -26 -5 -37 -1 -63 25 -36 35 -70 40 -78 12 -4 -16 -18 -19 -101 -24 -72 -4
-109 -1 -145 10 -41 14 -50 14 -58 2 -7 -11 -15 -11 -54 3 -39 15 -51 15 -89
4 -25 -8 -47 -12 -49 -10 -2 3 -94 7 -203 10 -142 4 -212 2 -244 -7 -25 -7
-79 -13 -120 -13 -41 -1 -85 -5 -97 -9 -15 -5 -30 -3 -47 9 -17 10 -32 13 -43
8 -10 -4 -220 -9 -468 -10 -247 -1 -540 -5 -650 -7 -110 -3 -281 -2 -380 2
-99 4 -225 4 -280 0 -87 -5 -105 -3 -142 15 -40 18 -43 19 -61 3 -23 -21 -40
-21 -83 -3 -19 8 -40 11 -49 6 -8 -4 -45 -11 -83 -15 -64 -6 -67 -6 -76 17 -5
13 -7 26 -5 29 2 3 -7 16 -21 29 -25 24 -45 20 -45 -10 0 -41 -11 -50 -60 -50
-27 0 -60 -4 -75 -10 -17 -6 -55 -6 -113 1 -48 6 -139 12 -202 13 -63 2 -130
6 -148 10 -27 6 -38 4 -56 -13 l-23 -21 -47 21 c-57 25 -76 20 -76 -22 0 -17
-3 -29 -8 -27 -4 1 -34 17 -67 33 -48 24 -72 30 -120 29 -33 -1 -93 -2 -134
-2 -42 -1 -92 -8 -116 -18 -33 -12 -51 -14 -77 -6 -37 11 -153 15 -181 6 -11
-3 -16 -12 -13 -20 9 -23 -67 -18 -89 6 -25 28 -107 28 -135 0 -23 -23 -40
-26 -40 -6 0 23 -51 36 -143 34 -70 -1 -90 -5 -104 -20 -9 -10 -22 -18 -30
-18 -8 0 -27 -7 -42 -15 -27 -14 -31 -13 -66 15 -45 36 -52 36 -81 9 l-23 -22
-32 28 c-38 31 -71 29 -121 -6 l-30 -22 -45 22 c-32 15 -54 20 -78 15 -38 -7
-235 -8 -560 -2 -158 3 -228 7 -247 17 -25 13 -30 11 -58 -13 -32 -26 -50 -33
-50 -18 0 15 -44 29 -70 22 -22 -6 -284 -14 -365 -11 -127 5 -184 10 -208 20
-16 6 -42 11 -58 11 -17 0 -39 5 -50 10 -15 9 -28 6 -59 -11 -22 -13 -42 -20
-45 -18 -2 3 1 19 7 37 7 17 9 34 5 38 -12 12 -57 -15 -67 -40 -6 -18 -19 -26
-48 -31 -48 -8 -293 13 -309 27 -40 33 14 63 97 54 30 -3 82 -1 115 5 33 6 71
12 85 14 14 2 41 6 60 10 27 5 41 2 60 -13 37 -29 65 -35 80 -17 11 13 15 13
41 0 32 -17 85 -20 94 -5 6 10 124 7 162 -5 18 -6 25 -2 35 19 11 25 15 27 50
21 21 -4 53 -2 71 4 25 9 42 9 63 1 42 -17 260 -22 316 -8 44 11 50 10 70 -9
21 -20 27 -21 66 -10 33 9 47 9 62 -1 12 -7 36 -9 64 -6 27 4 65 1 91 -6 42
-12 47 -11 69 9 27 25 78 28 130 6 33 -14 41 -14 96 5 65 22 105 25 115 10 11
-17 46 -11 64 11 16 20 21 21 72 10 30 -7 69 -17 87 -23 26 -8 38 -6 58 7 24
15 26 15 43 -7 17 -21 22 -22 53 -10 19 6 51 12 71 12 45 0 90 17 82 30 -3 5
-26 10 -51 10 -25 0 -60 7 -80 15 -31 13 -34 17 -24 36 14 26 12 28 -50 49
-54 18 -60 17 -60 -13 0 -17 -5 -19 -34 -14 -42 7 -56 -7 -50 -47 l6 -31 -19
23 c-16 20 -30 23 -110 27 -51 2 -101 10 -111 16 -14 9 -25 8 -50 -5 -31 -16
-32 -16 -67 16 -19 19 -35 42 -35 55 0 27 -16 32 -105 34 l-70 2 38 32 c25 22
35 38 31 49 -8 21 -11 21 -87 -13 -56 -25 -66 -34 -69 -58 -3 -26 -6 -28 -47
-28 -30 0 -47 -5 -54 -17 -17 -26 -3 -32 86 -35 45 -2 105 -5 132 -6 28 -2 69
-4 92 -5 37 -2 42 -5 48 -33 4 -17 5 -33 2 -35 -3 -3 -28 2 -56 12 -52 16 -52
16 -77 -7 -21 -20 -28 -21 -44 -11 -11 7 -47 12 -80 12 -33 0 -69 5 -80 12
-16 10 -27 8 -65 -10 -39 -19 -46 -20 -51 -7 -4 10 -21 15 -54 15 -43 0 -50 3
-71 35 -26 37 -43 42 -83 23 -20 -8 -36 -8 -68 1 -67 20 -165 24 -172 6 -6
-18 -37 -20 -53 -4 -8 8 -28 9 -60 4 -26 -5 -60 -7 -76 -6 -15 1 -42 -7 -61
-18 -39 -25 -79 -27 -96 -6 -17 20 0 40 46 55 70 24 26 46 -54 28 -46 -10 -57
-17 -66 -40 -13 -35 -26 -35 -56 -3 -13 14 -28 25 -34 25 -6 0 -17 9 -24 20
-7 11 -21 20 -32 20 -13 0 -20 -7 -20 -20 0 -13 7 -20 20 -20 24 0 38 -26 22
-42 -14 -14 -95 25 -114 54 -14 21 -17 21 -71 9 -32 -7 -57 -16 -57 -21 0 -15
-35 -29 -50 -20 -10 6 -7 15 15 42 49 59 120 84 164 56 14 -9 23 -8 42 5 30
21 73 22 104 1 19 -12 27 -13 43 -3 16 10 24 9 43 -4 29 -21 63 -22 79 -2 9
11 33 15 91 15 83 0 99 11 61 42 -33 28 -66 35 -122 28 -31 -4 -63 -3 -73 2
-13 7 -29 6 -48 -3 -37 -15 -60 1 -43 29 13 20 91 25 171 11 42 -8 58 -7 89 8
46 22 54 45 21 60 -23 11 -132 10 -229 -1 -27 -3 -44 1 -64 17 l-27 21 -18
-22 c-22 -28 -34 -28 -71 3 -39 33 -46 32 -50 -12 -3 -38 -3 -38 -43 -35 -87
6 -136 -21 -86 -48 28 -15 45 -12 71 10 16 14 27 17 40 10 53 -28 47 -74 -8
-51 -21 9 -41 9 -77 1 -64 -14 -75 -25 -75 -71 0 -22 -5 -39 -10 -39 -6 0 -15
-11 -20 -25 -5 -13 -20 -27 -33 -30 -14 -4 -29 -17 -36 -31 -12 -27 -29 -31
-37 -9 -6 14 61 88 88 97 10 4 10 10 1 31 -10 21 -20 27 -43 27 -17 0 -54 12
-83 27 -39 20 -68 27 -119 28 -61 1 -67 -1 -77 -22 -12 -25 -23 -28 -52 -13
-15 9 -19 7 -19 -6 0 -10 8 -26 17 -36 15 -17 15 -21 3 -29 -24 -15 -45 -6
-45 21 0 17 -6 26 -20 28 -11 2 -30 8 -43 14 -17 9 -25 9 -35 -1 -9 -9 -7 -13
11 -17 29 -8 28 -28 -2 -48 -18 -11 -24 -24 -23 -43 2 -20 -3 -28 -18 -30 -59
-10 -65 -14 -65 -38 0 -38 -43 -33 -87 10 -20 19 -38 35 -40 35 -2 0 -20 -7
-40 -15 -19 -8 -39 -15 -44 -15 -13 0 -11 34 2 47 19 19 2 43 -30 43 -16 0
-33 5 -36 10 -13 21 -58 10 -84 -20 -31 -36 -106 -60 -193 -60 -57 0 -58 0
-58 29 0 35 -12 41 -65 28 -48 -12 -56 -23 -44 -54 12 -32 -5 -38 -89 -25 -40
6 -72 6 -78 1 -6 -5 -31 -9 -55 -8 -75 4 -470 -11 -480 -17 -5 -3 -25 0 -44 6
-27 9 -43 9 -69 -1 -41 -15 -66 -1 -66 38 0 38 -62 93 -105 93 -19 0 -35 5
-35 10 0 6 -14 10 -31 10 -23 0 -40 -9 -63 -35 -18 -19 -37 -35 -42 -35 -12 0
-64 65 -64 80 0 6 15 17 34 25 33 14 51 37 39 49 -12 11 -51 6 -63 -9 -29 -34
-62 3 -40 45 18 33 -14 37 -58 6 -21 -14 -45 -26 -53 -26 -31 -1 -100 -40
-111 -65 -7 -16 -19 -25 -34 -25 -51 0 -39 -41 20 -70 47 -22 179 -29 191 -9
5 7 13 5 24 -5 9 -9 35 -19 57 -24 24 -5 39 -14 39 -22 0 -13 -28 -15 -170
-15 -113 -1 -177 -5 -192 -13 -11 -6 -59 -15 -105 -18 l-84 -7 -28 33 c-15 18
-25 39 -22 46 6 16 -57 57 -81 52 -29 -5 -26 -27 9 -58 27 -25 31 -33 22 -47
-18 -29 -81 -36 -152 -18 -56 14 -67 14 -92 1 -21 -10 -40 -12 -67 -6 -20 5
-41 7 -45 4 -14 -9 -9 -34 6 -34 16 0 46 -26 46 -41 0 -18 -38 -8 -53 14 -11
17 -31 25 -86 35 -87 15 -138 15 -146 2 -13 -22 -27 -9 -23 21 l5 31 -29 -31
c-16 -17 -34 -31 -39 -31 -6 0 -25 14 -42 31 -29 30 -34 31 -69 22 -29 -8 -40
-7 -49 3 -6 8 -27 14 -46 14 -18 0 -36 6 -39 13 -3 9 -33 13 -100 14 -52 1
-109 7 -125 14 -23 9 -50 10 -112 2 -163 -21 -580 -23 -660 -4 -44 11 -60 12
-69 3 -7 -7 -38 -12 -70 -12 -31 0 -68 -5 -82 -11 -19 -9 -29 -9 -40 0 -8 7
-25 9 -41 5 -19 -5 -32 -1 -50 16 -21 19 -29 21 -62 13 -35 -9 -38 -12 -35
-41 2 -35 -12 -41 -49 -21 -16 8 -25 7 -38 -5 -10 -9 -35 -16 -59 -16 -22 0
-44 -4 -47 -10 -3 -5 -26 -10 -51 -10 -39 0 -46 3 -54 26 -6 15 -19 39 -30 54
-35 49 -28 58 43 54 34 -2 77 -4 96 -4 26 0 32 -3 27 -15 -6 -15 14 -27 67
-40 19 -5 25 0 35 29 7 20 10 41 7 46 -4 6 -30 10 -58 9 -29 -1 -79 4 -111 10
-43 9 -66 10 -83 2 -13 -6 -35 -11 -47 -11 -23 0 -55 -39 -78 -92 -4 -10 -23
-24 -41 -32 -19 -8 -38 -19 -42 -25 -4 -8 -17 -3 -37 14 -24 21 -37 25 -57 19
-38 -11 -82 -9 -117 6 -41 17 -124 -4 -124 -32 0 -19 25 -25 35 -8 9 15 53 12
62 -4 13 -22 51 -37 76 -31 23 6 73 -11 109 -37 15 -10 22 -8 46 15 35 33 52
34 52 3 0 -32 18 -45 73 -52 59 -8 80 6 72 50 l-6 31 34 -38 c33 -38 34 -38
100 -36 52 2 71 -2 86 -15 21 -19 45 -12 71 18 19 24 36 19 35 -11 0 -23 4
-28 25 -28 18 0 26 6 28 22 3 20 32 42 32 24 0 -10 89 -41 117 -41 11 0 24 5
30 11 8 8 16 7 31 -2 27 -17 72 2 72 31 0 33 47 27 62 -7 7 -16 19 -36 27 -46
18 -22 -1 -49 -21 -29 -19 19 -42 14 -68 -13 -28 -30 -41 -31 -65 -5 -11 12
-25 18 -34 14 -70 -27 -155 -40 -228 -32 -46 4 -93 3 -116 -3 -25 -7 -64 -6
-120 1 -111 15 -117 17 -117 46 0 36 -52 33 -97 -6 -18 -17 -41 -30 -51 -30
-212 -6 -440 1 -458 12 -5 4 -42 2 -82 -4 -58 -9 -77 -9 -97 2 -30 16 -31 20
-4 54 14 18 30 26 50 26 44 0 26 18 -26 26 -25 3 -45 10 -45 16 0 5 6 8 13 6
6 -1 29 4 50 11 33 11 38 17 34 37 -2 14 0 27 4 30 14 8 10 24 -6 24 -8 0 -15
-6 -15 -14 0 -21 -26 -26 -105 -21 -63 4 -71 6 -75 27 -4 17 -17 26 -50 34
-27 6 -46 17 -48 26 -2 9 -16 18 -32 21 -52 11 -64 77 -14 77 13 0 49 -18 80
-40 64 -44 99 -51 107 -20 7 28 29 25 66 -11 31 -29 36 -30 89 -25 54 6 94 8
145 6 12 -1 45 2 74 6 31 4 65 2 84 -5 26 -9 37 -8 57 5 22 15 23 17 8 32 -12
13 -40 16 -129 18 -62 0 -122 6 -132 11 -14 7 -40 7 -83 0 -71 -11 -96 -1 -76
31 8 12 21 16 47 14 41 -4 54 10 31 32 -19 20 -32 20 -77 1 -58 -24 -74 -20
-97 25 -27 52 -52 52 -107 -2 -35 -34 -45 -39 -57 -29 -11 10 -13 19 -5 38 8
22 6 30 -17 54 -27 29 -25 49 5 49 10 0 26 11 35 25 16 24 18 25 46 10 38 -20
53 -19 75 5 17 19 17 20 -7 29 -13 5 -49 12 -79 16 -44 5 -58 4 -68 -9 -17
-20 -45 -21 -61 -1 -11 13 -15 13 -33 0 -31 -22 -45 -19 -40 9 3 13 0 32 -5
43 -15 27 -3 41 37 45 28 2 39 11 58 43 47 80 48 83 28 105 -18 20 -18 21 3
43 19 20 22 35 22 108 0 46 5 124 10 173 9 80 9 93 -8 125 -18 34 -18 37 -2
51 15 13 17 28 11 120 -4 59 -3 130 3 163 11 66 2 83 -38 73 -21 -5 -26 -12
-26 -38 0 -24 -9 -39 -38 -65 -38 -34 -52 -40 -52 -24 0 23 14 41 30 41 22 0
36 18 32 41 -2 9 4 22 13 29 8 7 15 21 15 32 0 12 11 23 29 29 32 11 36 22 46
114 6 49 4 63 -9 74 -21 18 -44 7 -57 -26 -5 -16 -19 -35 -30 -44 -20 -15 -20
-16 -2 -46 17 -31 17 -32 -5 -56 -12 -13 -22 -33 -22 -45 0 -15 -6 -22 -20
-22 -15 0 -20 7 -20 24 0 14 4 27 9 30 4 3 11 37 15 75 5 53 2 80 -10 111 -9
22 -14 47 -10 55 3 9 -4 34 -16 57 -25 47 -28 130 -8 179 10 23 10 36 0 58
-16 40 -7 51 47 51 50 0 49 3 28 -81 -5 -20 -1 -33 19 -54 14 -15 26 -37 26
-47 0 -11 5 -28 11 -40 9 -16 7 -24 -11 -43 -27 -29 -23 -52 12 -78 23 -18 29
-18 44 -6 15 12 16 30 12 139 -4 92 -10 135 -23 159 -12 24 -14 36 -6 44 6 6
11 24 11 39 0 22 -7 31 -35 42 -28 12 -35 20 -35 44 0 18 -10 38 -28 55 -35
34 -39 34 -47 -2 -6 -30 -50 -78 -58 -64 -3 4 -8 31 -12 59 -6 50 -6 52 23 67
23 11 33 12 42 3 16 -16 31 11 28 49 -2 21 -9 31 -23 34 -28 5 -35 20 -28 67
4 32 2 42 -11 47 -19 7 -36 -20 -36 -58 0 -15 -7 -42 -16 -61 -10 -22 -14 -44
-9 -62 14 -58 11 -77 -12 -80 -17 -3 -23 2 -23 17 0 11 4 23 10 26 16 10 11
87 -9 131 -13 28 -27 43 -45 48 -20 5 -26 13 -26 34 0 15 -5 33 -10 38 -15 15
3 58 31 78 23 16 23 16 6 64 -21 56 -15 82 19 82 21 0 24 -5 24 -39 0 -57 8
-71 41 -71 25 0 30 5 36 31 5 26 9 30 30 24 30 -7 64 11 57 30 -4 9 -29 16
-74 21 -58 5 -69 10 -78 29 -6 13 -27 28 -48 35 -36 12 -39 12 -61 -16 -25
-30 -25 -30 -7 -127 5 -26 1 -38 -20 -60 -32 -34 -33 -51 -4 -71 20 -15 21
-16 5 -34 -9 -10 -17 -31 -17 -46 0 -14 -7 -29 -15 -32 -22 -9 -18 -38 13 -94
22 -40 32 -50 54 -50 18 0 29 6 33 20 3 11 11 20 17 20 6 0 8 -9 3 -22 -17
-56 -17 -68 4 -94 11 -14 18 -30 15 -35 -9 -16 -33 -10 -46 11 -14 21 -43 27
-53 10 -4 -6 5 -34 20 -63 29 -61 26 -81 -16 -103 -32 -16 -38 -44 -14 -64 21
-17 19 -43 -5 -58 -25 -15 -26 -44 -1 -66 23 -21 32 -49 20 -67 -8 -11 -12
-10 -24 5 -8 11 -15 28 -15 38 0 13 -8 18 -25 18 -29 0 -35 -29 -10 -50 8 -7
15 -18 15 -25 0 -14 22 -25 50 -25 12 0 20 -10 24 -35 4 -19 11 -35 15 -35 5
0 12 -40 16 -89 6 -73 4 -94 -10 -121 -10 -20 -15 -44 -11 -61 6 -32 -12 -40
-34 -14 -13 16 -10 40 11 91 19 47 -11 114 -63 139 -43 21 -60 14 -35 -13 19
-21 22 -48 7 -57 -6 -3 -10 -42 -10 -86 0 -47 -4 -79 -10 -79 -11 0 -14 7 -24
53 -4 17 -16 31 -31 37 -34 13 -31 36 5 44 33 6 35 16 17 60 -11 25 -10 35 5
65 10 20 29 41 43 49 41 21 28 82 -17 82 -11 0 -26 -19 -43 -55 -29 -60 -41
-73 -57 -57 -7 7 -2 17 16 33 33 28 33 49 1 79 -29 28 -31 37 -8 62 13 15 14
23 5 43 -10 21 -8 36 8 83 11 31 20 64 20 74 0 23 29 23 36 1 24 -75 61 -122
85 -107 13 7 11 51 -2 60 -6 3 -8 15 -6 26 3 11 1 31 -5 44 -8 17 -7 31 2 54
10 24 10 36 0 61 -10 24 -10 35 0 54 10 19 11 30 2 50 -7 14 -12 36 -12 49 0
13 -7 29 -15 36 -17 14 -20 56 -5 65 5 3 10 17 10 29 0 13 7 29 15 36 19 16
19 39 0 46 -12 5 -13 23 -8 100 4 60 2 103 -5 117 -17 35 -23 125 -9 130 9 3
9 13 -1 41 -8 22 -11 52 -8 71 6 28 3 36 -14 45 -28 15 -57 -2 -65 -39 -3 -16
-13 -32 -22 -35 -10 -4 -13 -14 -9 -30 8 -34 -11 -42 -39 -16 -29 28 -35 59
-19 105 9 27 9 45 2 67 -8 22 -7 40 2 68 11 34 10 41 -14 83 -38 63 -55 76
-71 53 -14 -19 -10 -197 5 -225 5 -8 4 -25 0 -37 -14 -36 -10 -365 4 -397 5
-11 17 -17 30 -15 17 2 22 12 26 50 3 26 13 55 23 66 23 25 22 52 -3 52 -27 0
-43 32 -26 55 15 21 33 13 46 -20 6 -16 19 -25 37 -27 40 -4 45 -45 9 -73 -18
-15 -31 -40 -42 -83 l-16 -61 32 -65 c18 -35 29 -69 26 -74 -3 -5 -1 -23 4
-41 9 -31 -7 -131 -21 -131 -20 0 -29 41 -34 156 -6 139 -13 154 -63 154 -23
0 -24 -2 -17 -47 12 -93 10 -462 -3 -475 -14 -14 -16 -51 -3 -76 27 -50 50
-102 46 -102 -3 0 -14 9 -25 20 -11 11 -24 20 -30 20 -20 0 -9 -49 17 -81 24
-29 28 -41 31 -125 4 -82 2 -94 -12 -94 -9 0 -25 5 -35 12 -16 10 -23 7 -42
-16 -34 -39 -59 -27 -59 28 0 30 -3 37 -10 26 -5 -8 -10 -48 -10 -87 0 -69 1
-73 23 -73 27 0 45 -26 53 -77 3 -21 8 -41 11 -46 2 -4 -5 -19 -17 -34 -18
-24 -19 -28 -6 -47 51 -71 58 -97 58 -207 -1 -85 -4 -113 -18 -134 -13 -20
-14 -29 -5 -38 8 -8 14 -8 23 1 7 7 15 12 20 12 10 0 -1 -58 -18 -92 -19 -37
-18 -60 3 -56 16 3 18 -5 14 -77 -2 -44 -7 -85 -12 -91 -24 -30 -50 -145 -52
-231 -2 -74 -6 -95 -22 -112 -16 -19 -17 -26 -7 -54 18 -52 26 -180 13 -206
-17 -31 -34 -22 -47 24 -6 21 -16 41 -22 43 -16 5 -14 -52 2 -98 11 -28 17
-34 37 -32 14 2 34 -6 47 -19 l23 -21 -20 -22 c-27 -29 -26 -44 3 -57 19 -9
29 -7 55 10 17 12 45 30 62 42 17 11 49 26 72 33 37 11 42 15 39 39 -4 34 23
79 60 102 16 9 34 28 40 41 6 14 22 27 35 30 13 4 28 15 34 25 12 24 46 24 71
2 14 -12 37 -17 76 -18 52 0 58 -2 70 -27 7 -16 20 -28 28 -28 7 0 14 -9 14
-20 0 -23 -33 -60 -55 -60 -17 0 -31 43 -20 61 10 15 -13 29 -52 29 -17 0 -35
5 -38 10 -10 17 -54 11 -74 -9 -10 -10 -28 -22 -40 -26 -12 -3 -21 -13 -21
-21 0 -19 36 -18 44 1 8 21 92 21 100 -1 9 -23 7 -52 -3 -58 -4 -3 -22 0 -39
6 -26 10 -36 9 -66 -7 -20 -11 -39 -28 -42 -37 -6 -19 -39 -24 -49 -8 -10 17
-33 11 -40 -9 -7 -24 14 -61 35 -61 8 0 28 7 44 15 15 8 34 15 42 15 7 0 20
10 28 22 13 19 19 20 41 10 37 -17 44 -15 55 13 8 22 13 24 30 15 17 -9 18
-14 8 -30 -17 -26 1 -43 36 -34 20 5 26 12 26 34 0 25 4 28 43 34 24 4 56 2
70 -3 23 -9 27 -16 25 -43 -3 -30 -1 -33 25 -31 18 1 27 -3 27 -13 0 -8 -5
-14 -11 -14 -7 0 -8 -16 -3 -45 5 -39 4 -45 -11 -45 -10 0 -41 23 -69 51 -48
48 -50 52 -32 65 10 7 23 15 29 17 12 4 -1 47 -15 47 -5 0 -22 -13 -37 -29
-23 -24 -28 -40 -30 -88 -3 -73 10 -89 59 -71 29 9 35 9 47 -7 30 -41 10 -59
-77 -69 -36 -5 -74 -2 -109 7 -50 14 -56 13 -87 -5 -31 -18 -38 -19 -87 -7
-57 14 -220 13 -225 -2 -7 -19 -52 -9 -69 17 -14 21 -14 29 -4 46 10 17 9 22
-6 34 -27 20 -31 17 -35 -18 -4 -44 -23 -46 -50 -4 -43 66 -78 54 -78 -25 0
-42 -5 -55 -34 -87 -19 -20 -37 -35 -40 -32 -3 3 -2 21 3 40 4 19 3 175 -1
345 -5 171 -6 510 -3 755 3 245 6 452 6 460 0 8 -3 52 -7 97 -6 71 -4 85 13
115 19 30 20 42 12 143 -4 60 -6 113 -3 117 3 4 0 35 -6 69 -11 60 -11 63 14
86 14 13 26 28 26 32 0 5 -14 26 -31 47 -25 32 -29 44 -23 69 4 16 6 41 4 55
-1 14 -1 41 -1 60 1 19 2 118 2 220 0 165 2 189 19 217 22 37 60 62 60 40 0
-7 -5 -18 -11 -24 -15 -15 -3 -83 15 -83 7 0 18 11 24 25 10 20 9 32 -2 53 -8
15 -11 42 -8 61 4 28 2 33 -10 28 -19 -7 -53 16 -70 46 -6 12 -13 65 -15 117
-6 158 -8 639 -4 740 3 52 4 376 3 720 -1 344 2 776 5 960 4 184 6 360 5 390
-3 217 -2 1700 2 1760 3 41 5 82 5 90 0 8 -2 101 -3 205 -5 253 -6 1841 -3
2475 2 396 6 510 16 529 10 18 11 33 3 60 -14 49 -14 457 0 498 9 24 9 41 -1
70 -9 28 -9 76 -3 188 7 107 7 154 -1 164 -8 9 -13 219 -16 695 -5 679 -6
1905 -1 1981 1 22 -1 234 -4 470 -8 604 -8 1714 -1 1751 4 17 2 48 -4 70 -7
26 -11 492 -13 1436 -2 1500 -5 1417 47 1439 11 5 58 7 105 4 47 -3 2108 -8
4580 -10z m-4136 -17061 c10 -26 7 -74 -5 -74 -29 0 -49 22 -49 55 0 30 3 35
24 35 13 0 27 -7 30 -16z m168 -314 c3 -15 -2 -20 -22 -20 -11 0 -14 33 -3 44
8 8 20 -4 25 -24z m-444 -82 c18 -18 14 -38 -7 -38 -20 0 -35 25 -25 41 7 12
18 11 32 -3z m357 -38 c7 -11 -12 -40 -25 -40 -11 0 -21 30 -14 41 7 12 31 11
39 -1z m85 -281 c0 -27 -4 -49 -10 -49 -17 0 -27 34 -22 78 3 35 7 41 18 31 8
-7 14 -31 14 -60z m-92 -32 c4 -20 -25 -34 -39 -20 -14 14 1 45 20 41 9 -2 17
-11 19 -21z m-418 -143 c0 -17 -22 -14 -28 4 -2 7 3 12 12 12 9 0 16 -7 16
-16z m478 -12 c2 -7 -3 -12 -12 -12 -9 0 -16 7 -16 16 0 17 22 14 28 -4z m-45
-74 c6 -8 7 -28 2 -44 -7 -29 -7 -29 -21 16 -8 25 -14 47 -14 48 0 9 25 -6 33
-20z m97 -52 c0 -11 -7 -29 -15 -39 -7 -11 -17 -49 -21 -85 -3 -37 -11 -78
-16 -91 -6 -17 -4 -31 8 -48 11 -18 14 -37 10 -67 -19 -121 -19 -131 9 -179
14 -26 23 -52 20 -57 -10 -17 -68 -11 -102 10 -23 14 -34 29 -39 56 -6 33 -4
40 21 60 26 21 27 23 11 45 -9 13 -16 37 -16 54 0 17 -5 36 -12 43 -8 8 -9 18
-1 35 7 14 9 43 6 66 -4 32 -2 42 11 47 11 4 15 13 11 25 -8 25 15 99 31 99 7
0 22 13 34 30 23 33 50 31 50 -4z m-411 -33 c12 -14 19 -28 16 -31 -6 -6 -55
38 -55 50 0 16 19 7 39 -19z m185 -229 c3 -9 6 -36 6 -60 0 -32 -4 -44 -15
-44 -12 0 -15 13 -15 60 0 57 11 78 24 44z m-89 -58 c23 -32 26 -42 17 -57
-25 -39 -11 -89 24 -89 20 0 24 -5 24 -30 0 -23 -4 -30 -20 -30 -27 0 -25 -22
5 -50 35 -33 33 -67 -4 -75 -36 -8 -64 -67 -55 -115 7 -34 5 -35 -30 -19 -20
9 -29 9 -41 -1 -21 -17 -45 -5 -45 24 0 14 -5 37 -10 51 -8 20 -6 35 6 60 14
30 14 36 0 64 -20 38 -20 62 -1 108 l15 36 26 -24 26 -24 19 24 c18 21 19 34
13 90 -3 36 -11 71 -16 78 -5 7 -7 17 -3 23 8 13 8 12 50 -44z m405 34 c9 -16
8 -20 -5 -20 -8 0 -15 9 -15 20 0 11 2 20 5 20 2 0 9 -9 15 -20z m-329 -153
c-13 -13 -15 1 -4 30 7 17 8 17 11 -1 2 -10 -1 -23 -7 -29z m111 -219 c-7 -7
-12 -8 -12 -2 0 14 12 26 19 19 2 -3 -1 -11 -7 -17z m126 -20 c17 -17 15 -38
-5 -60 -14 -16 -15 -24 -5 -52 20 -54 15 -102 -13 -130 -23 -23 -24 -30 -19
-88 l5 -63 -25 28 c-19 21 -24 35 -20 53 4 15 0 34 -10 49 -23 35 -20 62 9 81
29 19 33 55 8 75 -9 8 -18 13 -20 12 -1 -2 -8 -3 -15 -3 -7 0 2 15 20 33 18
18 32 37 32 43 0 13 21 34 35 34 6 0 16 -5 23 -12z m-207 -120 c8 -15 6 -18
-11 -18 -23 0 -35 22 -26 47 7 19 11 16 37 -29z m-131 -81 c0 -22 -26 -51 -38
-43 -16 10 -15 43 1 49 22 10 37 7 37 -6z m-91 -126 c6 -11 10 -36 10 -58 0
-21 2 -54 6 -73 6 -40 -9 -74 -24 -52 -4 8 -11 46 -15 85 -3 38 -9 81 -12 94
-8 29 20 32 35 4z m146 -51 c16 0 10 -57 -10 -105 -8 -16 -16 -40 -20 -52 -3
-13 -11 -23 -16 -23 -17 0 -23 32 -10 52 8 13 10 34 6 59 -8 48 2 82 22 75 8
-3 21 -6 28 -6z m305 -75 c26 24 84 17 88 -11 4 -28 -39 -51 -71 -37 -19 9
-28 6 -62 -22 -38 -32 -39 -33 -72 -17 -37 18 -45 53 -18 82 15 16 20 16 66 3
46 -14 52 -13 69 2z m-545 -47 c-4 -13 -8 -43 -9 -67 -1 -25 -6 -46 -13 -48
-9 -3 -12 13 -12 59 1 71 4 78 26 78 11 0 13 -6 8 -22z m627 -65 c23 -21 23
-40 -1 -53 -28 -14 -30 -13 -42 17 -18 48 6 69 43 36z m-514 -93 c10 -40 7
-50 -14 -50 -13 0 -29 65 -19 80 12 19 23 10 33 -30z m4858 -1 c3 -6 1 -16 -5
-22 -13 -13 -65 8 -56 23 8 13 52 13 61 -1z m-148 -37 c2 -7 -3 -12 -12 -12
-9 0 -16 7 -16 16 0 17 22 14 28 -4z m2558 -11 c-15 -28 -57 -48 -77 -35 -6 3
-14 16 -18 28 -7 18 -4 22 23 27 17 4 43 7 59 8 27 1 27 1 13 -28z m-7371 -17
c19 -29 12 -44 -13 -28 -18 12 -29 54 -14 54 5 0 17 -12 27 -26z m7473 14 c28
-28 -2 -68 -50 -68 -28 0 -29 1 -23 33 4 17 9 35 12 40 7 11 48 8 61 -5z
m-2172 -83 c32 -20 30 -30 -6 -45 -33 -14 -54 -4 -65 31 -6 17 -8 17 -21 4 -9
-8 -26 -15 -40 -15 -28 0 -44 28 -23 41 21 13 127 3 155 -16z m-2141 -25 c3
-5 25 -10 48 -10 23 0 52 -3 63 -6 26 -7 49 -46 40 -69 -5 -15 -9 -14 -32 4
-15 11 -41 25 -58 29 -46 13 -145 -2 -162 -25 -13 -17 -14 -17 -20 4 -4 16
-17 23 -45 28 -66 11 -43 34 33 33 20 0 44 5 55 11 23 13 70 14 78 1z m295
-17 c0 -5 -11 -21 -24 -38 -20 -25 -26 -28 -40 -16 -25 21 -19 37 17 49 41 13
47 14 47 5z m1355 -17 c21 -32 5 -66 -30 -66 -14 0 -25 3 -25 7 0 8 33 83 37
83 1 0 10 -11 18 -24z m-1895 -16 c0 -5 -7 -10 -16 -10 -8 0 -12 5 -9 10 3 6
10 10 16 10 5 0 9 -4 9 -10z m4170 -11 c0 -5 -10 -9 -21 -9 -18 0 -19 2 -9 15
12 15 30 12 30 -6z m-6315 2 c3 -5 1 -12 -5 -16 -5 -3 -10 1 -10 9 0 18 6 21
15 7z m4232 -39 c-25 -24 -47 -23 -47 3 0 23 41 47 57 33 12 -9 10 -16 -10
-36z m463 18 c0 -5 -4 -10 -10 -10 -5 0 -10 5 -10 10 0 6 5 10 10 10 6 0 10
-4 10 -10z m-3113 -6 c-3 -3 -12 -4 -19 -1 -8 3 -5 6 6 6 11 1 17 -2 13 -5z
m2553 -35 c0 -39 1 -41 27 -36 45 8 95 -38 63 -58 -11 -7 -221 -19 -292 -17
-21 1 -50 1 -65 1 -16 0 -89 1 -163 2 -74 2 -211 2 -305 1 -93 -1 -187 -2
-207 -2 -21 -1 -46 0 -55 0 -10 0 -84 -2 -165 -5 -95 -3 -149 -2 -153 5 -3 5
-19 10 -35 10 -16 0 -40 5 -54 11 -20 9 -40 8 -93 -5 -75 -18 -256 -22 -297
-6 -19 7 -29 5 -41 -6 -21 -21 -138 -26 -184 -8 -37 15 -71 18 -71 6 0 -4 -57
-7 -126 -7 l-126 0 -29 33 c-21 23 -29 42 -27 60 4 32 38 45 38 15 0 -59 95
-58 150 1 32 34 41 33 34 -4 -5 -25 -3 -30 18 -35 14 -4 41 2 68 14 53 24 83
26 102 7 20 -19 114 -26 136 -10 20 16 58 18 67 5 3 -6 41 -7 88 -4 45 3 112
5 148 4 54 -1 69 2 84 19 18 20 50 27 57 13 2 -5 19 -16 38 -25 50 -24 154
-23 202 2 29 15 44 17 64 10 14 -6 49 -7 78 -4 37 5 72 1 122 -13 75 -22 150
-19 191 7 19 12 24 12 42 -4 34 -30 71 0 39 32 -18 18 22 15 47 -3 14 -11 32
-13 66 -9 40 5 50 3 65 -15 29 -34 47 -27 40 14 -8 39 2 45 29 15 10 -11 25
-20 33 -20 9 0 24 -7 33 -16 17 -15 21 -15 50 -1 23 11 39 13 56 6 53 -20 153
-3 153 26 0 17 22 35 42 35 14 0 18 -8 18 -41z m970 31 c0 -6 -11 -8 -27 -4
-40 10 -41 14 -5 14 18 0 32 -5 32 -10z m-3590 -10 c8 -5 12 -12 8 -15 -9 -9
-48 4 -48 16 0 12 21 11 40 -1z m325 0 c-3 -5 -15 -10 -26 -10 -10 0 -19 5
-19 10 0 6 12 10 26 10 14 0 23 -4 19 -10z m575 0 c0 -5 -2 -10 -4 -10 -3 0
-8 5 -11 10 -3 6 -1 10 4 10 6 0 11 -4 11 -10z m4045 -5 c79 -3 151 -17 189
-37 18 -10 17 -14 -24 -49 -47 -41 -76 -40 -82 3 -5 37 -52 36 -87 -1 -16 -17
-38 -31 -49 -31 -11 0 -41 -9 -67 -20 -37 -16 -58 -19 -102 -14 -79 10 -108
45 -46 57 16 2 42 11 60 18 28 11 37 11 70 -5 36 -17 38 -17 50 1 12 15 11 20
-4 30 -9 7 -25 13 -35 13 -11 0 -18 7 -18 18 0 27 11 34 40 27 14 -4 61 -8
105 -10z m-230 -25 c0 -22 -5 -25 -36 -28 -57 -5 -95 42 -41 51 58 9 77 4 77
-23z m-905 5 c0 -28 41 -37 115 -25 157 25 198 27 233 11 26 -12 37 -13 52 -3
27 17 81 15 108 -4 18 -12 26 -13 37 -4 10 8 29 9 67 2 29 -6 73 -8 98 -5 50
6 75 -10 68 -44 -3 -15 -14 -18 -63 -19 -33 0 -70 -6 -82 -12 -17 -9 -28 -9
-48 0 -19 9 -31 8 -49 -2 -19 -9 -32 -10 -56 -1 -20 7 -38 7 -49 1 -10 -5 -59
-6 -110 -3 -88 6 -92 5 -98 -15 -6 -26 -7 -26 -36 -8 -23 15 -121 30 -175 27
-21 0 -35 4 -38 14 -8 19 -44 19 -69 1 -13 -9 -28 -11 -49 -5 -22 6 -34 5 -46
-6 -24 -22 -57 -19 -63 6 -4 16 -12 20 -34 17 -22 -2 -29 -9 -31 -30 -2 -16
-5 -28 -7 -28 -2 0 -20 10 -41 22 -48 28 -204 35 -277 11 -42 -14 -59 -14
-119 -3 -51 9 -73 9 -81 1 -16 -16 -118 -14 -159 3 -76 32 -72 73 5 53 36 -9
42 -8 59 12 17 22 20 23 70 10 37 -10 107 -13 228 -11 314 5 335 3 382 -22 36
-19 36 -19 63 2 15 12 39 22 52 22 14 0 38 11 55 25 33 28 88 34 88 10z
m-5310 -61 c0 -28 -13 -37 -40 -29 -22 7 -28 51 -7 58 24 8 47 -5 47 -29z
m5269 -80 c14 -18 27 -25 40 -21 22 5 60 -17 49 -28 -4 -4 -21 -2 -38 3 -17 6
-37 9 -45 5 -8 -3 -31 -2 -50 1 -28 6 -35 12 -35 30 0 12 3 26 7 29 15 16 53
5 72 -19z m-237 -34 l33 -29 -88 3 c-49 1 -93 8 -99 14 -9 9 -3 12 28 12 21 0
48 7 58 15 27 20 31 19 68 -15z m-902 5 c27 -14 33 -14 61 1 22 11 39 13 53 7
21 -8 75 -8 296 3 69 3 154 3 189 -1 l64 -7 -22 -21 c-21 -22 -27 -22 -360
-22 -278 0 -342 3 -356 15 -16 13 -16 15 1 27 23 17 38 16 74 -2z m2478 3 c19
-19 14 -30 -10 -26 -13 2 -24 11 -26 21 -4 20 18 23 36 5z m2274 1 c17 -9 18
-13 7 -20 -17 -10 -73 -12 -83 -2 -3 4 4 13 16 20 29 15 34 16 60 2z m196 -7
c3 -9 -2 -13 -14 -10 -9 1 -19 9 -22 16 -3 9 2 13 14 10 9 -1 19 -9 22 -16z
m1852 8 c0 -5 -4 -10 -10 -10 -5 0 -10 5 -10 10 0 6 5 10 10 10 6 0 10 -4 10
-10z m-9161 -14 c25 -30 -61 -49 -114 -24 -33 15 -32 26 3 31 60 9 100 6 111
-7z m3994 7 c11 -10 -13 -33 -34 -33 -12 0 -19 7 -19 20 0 14 7 20 23 20 13 0
27 -3 30 -7z m-5679 -23 c13 -12 -32 -23 -67 -16 -18 3 -46 2 -63 -3 -34 -9
-74 4 -81 26 -3 9 20 11 99 6 57 -3 107 -9 112 -13z m2844 8 c19 -19 14 -28
-17 -28 -34 0 -51 18 -30 31 19 12 33 11 47 -3z m2715 5 c4 -3 2 -12 -4 -20
-21 -25 -101 -10 -85 16 8 12 78 15 89 4z m-6113 -13 c0 -5 -5 -10 -11 -10 -5
0 -7 5 -4 10 3 6 8 10 11 10 2 0 4 -4 4 -10z m4430 0 c0 -5 -9 -10 -20 -10
-11 0 -20 5 -20 10 0 6 9 10 20 10 11 0 20 -4 20 -10z m2040 1 c0 -12 -20 -25
-27 -18 -7 7 6 27 18 27 5 0 9 -4 9 -9z m150 -1 c11 -7 1 -10 -35 -10 -27 0
-57 5 -65 10 -11 7 -1 10 35 10 28 0 57 -5 65 -10z m203 -7 c-7 -2 -19 -2 -25
0 -7 3 -2 5 12 5 14 0 19 -2 13 -5z"/>
<path d="M5963 19835 c-17 -12 -37 -13 -102 -5 -58 7 -89 6 -107 -2 -19 -9
-37 -9 -74 1 -41 10 -56 10 -87 -1 -28 -10 -116 -13 -343 -14 -168 0 -451 -1
-629 -2 -179 -1 -327 1 -331 3 -6 4 -224 6 -575 7 -82 0 -211 0 -285 0 -74 0
-396 0 -715 0 -319 0 -712 1 -872 1 -161 1 -293 -2 -293 -6 0 -4 6 -20 14 -35
11 -22 16 -117 21 -452 3 -234 10 -453 15 -487 4 -33 9 -1109 10 -2390 1
-1280 3 -2881 5 -3558 1 -676 3 -1423 3 -1660 0 -236 0 -482 0 -545 4 -950 2
-1238 -8 -1264 -6 -16 -8 -43 -5 -60 12 -64 15 -357 19 -2368 3 -1307 2 -2059
-4 -2063 -14 -9 -12 -49 2 -63 9 -9 9 -20 0 -45 -12 -34 -13 -76 -6 -362 2
-99 4 -187 4 -195 0 -8 -3 -30 -6 -48 -3 -18 -2 -38 3 -45 5 -7 7 -92 5 -192
-6 -215 -5 -420 0 -605 1 -41 1 -93 0 -115 -1 -22 -2 -56 -1 -75 2 -83 1 -130
-6 -406 -5 -206 -4 -294 4 -298 14 -9 14 -53 1 -61 -6 -3 -10 -17 -10 -30 0
-21 6 -24 53 -30 94 -10 17307 -11 17308 0 1 6 2 145 3 311 1 272 3 302 19
318 9 10 17 24 17 31 0 18 -20 30 -21 13 -1 -7 -5 18 -10 57 -6 56 -5 74 9 97
15 25 15 29 -1 46 -22 24 -23 110 -2 138 18 24 19 66 3 82 -10 10 -14 101 -16
370 -2 366 1 447 20 436 11 -7 28 13 28 34 0 6 -7 12 -15 12 -8 0 -15 -4 -15
-10 0 -5 -5 -10 -10 -10 -7 0 -10 129 -9 393 1 215 0 802 -1 1302 -1 501 1
918 5 927 4 10 11 15 16 12 5 -3 9 7 9 23 0 21 -3 24 -10 13 -14 -22 -24 12
-16 58 4 20 6 46 6 57 -1 11 -3 137 -6 280 -3 231 -2 261 12 272 15 11 15 13
-1 29 -12 13 -15 25 -10 48 9 36 8 44 -3 112 -4 29 -5 157 -2 285 4 129 4 259
0 289 -8 59 -5 1614 3 1627 3 5 -1 40 -9 78 -7 39 -11 84 -8 101 7 39 8 122 4
457 -2 204 1 271 10 282 10 12 10 21 1 38 -13 24 -16 214 -7 407 3 63 5 126 6
140 0 14 -3 72 -7 130 -4 58 -7 218 -5 355 2 230 2 582 0 995 0 91 0 374 0
630 0 256 -1 1019 -2 1695 -2 777 0 1242 6 1263 7 23 6 48 -1 78 -9 36 -9 50
4 74 9 17 13 35 9 41 -15 25 -19 353 -17 1594 2 1153 4 1336 17 1372 10 29 12
45 4 49 -5 3 -41 3 -79 0 -57 -6 -74 -4 -99 11 -26 15 -34 16 -63 4 -33 -14
-818 -15 -2377 -5 -344 2 -881 5 -1195 7 -396 2 -578 7 -597 15 -18 7 -37 8
-58 2 -28 -8 -103 -10 -405 -13 -27 0 -293 1 -590 3 -431 2 -1456 4 -1550 2
-317 -7 -786 -8 -975 -3 -135 4 -256 4 -270 0 -14 -3 -115 -2 -225 3 -268 12
-506 11 -583 -2 -35 -6 -67 -8 -72 -5 -18 11 -213 23 -235 15 -25 -10 -666
-14 -1240 -9 -49 1 -250 1 -445 0 -561 -2 -895 -2 -1025 -1 -66 1 -254 1 -417
0 -178 -2 -316 2 -345 8 -88 19 -149 22 -170 7z"/>
<path d="M756 16301 c-4 -7 -5 -15 -2 -18 9 -9 19 4 14 18 -4 11 -6 11 -12 0z"/>
<path d="M955 15840 c3 -5 8 -10 11 -10 2 0 4 5 4 10 0 6 -5 10 -11 10 -5 0
-7 -4 -4 -10z"/>
<path d="M20244 12720 c0 -52 1 -74 3 -47 2 26 2 68 0 95 -2 26 -3 4 -3 -48z"/>
<path d="M762 12663 c-8 -15 -9 -24 -1 -28 15 -10 21 0 17 27 l-3 23 -13 -22z"/>
<path d="M20236 12413 c-3 -16 -2 -64 3 -108 l8 -80 2 108 c1 107 -3 131 -13
80z"/>
<path d="M935 12231 c-6 -10 21 -41 35 -41 17 0 20 19 4 34 -18 18 -30 20 -39
7z"/>
<path d="M20238 12048 c-2 -7 -1 -42 2 -78 l7 -65 1 78 c2 74 -1 92 -10 65z"/>
<path d="M20238 11624 c-10 -9 -8 -131 2 -164 l7 -25 8 28 c9 33 -6 173 -17
161z"/>
<path d="M20243 11220 c0 -25 2 -35 4 -22 2 12 2 32 0 45 -2 12 -4 2 -4 -23z"/>
<path d="M20237 10796 c-10 -107 -9 -176 2 -176 5 0 12 7 15 16 8 20 6 124 -3
189 l-7 50 -7 -79z"/>
<path d="M20235 10540 c-4 -6 -3 -50 1 -98 l8 -87 9 89 c7 84 0 125 -18 96z"/>
<path d="M20236 10183 c-8 -9 -6 -93 3 -118 7 -16 9 -14 14 14 14 69 5 125
-17 104z"/>
<path d="M760 10015 c0 -14 4 -25 9 -25 12 0 19 21 13 38 -8 21 -22 13 -22
-13z"/>
<path d="M20241 9975 c0 -42 2 -46 11 -28 7 15 7 30 0 50 -10 26 -10 24 -11
-22z"/>
<path d="M20236 9352 c-8 -69 3 -180 15 -160 11 17 11 205 0 212 -5 3 -11 -21
-15 -52z"/>
<path d="M20236 9031 c-7 -11 -6 -147 1 -174 11 -42 23 1 23 83 0 81 -9 115
-24 91z"/>
<path d="M20233 8644 c4 -22 7 -74 7 -116 0 -43 4 -78 9 -78 6 0 9 48 8 112
-2 85 -5 112 -16 116 -11 4 -13 -3 -8 -34z"/>
<path d="M480 8390 c0 -5 5 -10 10 -10 6 0 10 5 10 10 0 6 -4 10 -10 10 -5 0
-10 -4 -10 -10z"/>
<path d="M1330 8344 c0 -8 5 -12 10 -9 6 3 10 10 10 16 0 5 -4 9 -10 9 -5 0
-10 -7 -10 -16z"/>
<path d="M20237 8273 c-8 -15 6 -213 14 -207 12 7 12 214 0 214 -6 0 -12 -3
-14 -7z"/>
<path d="M415 7930 c-3 -5 -1 -10 4 -10 6 0 11 5 11 10 0 6 -2 10 -4 10 -3 0
-8 -4 -11 -10z"/>
<path d="M540 7903 c0 -25 1 -26 16 -11 9 9 13 21 10 27 -13 20 -26 11 -26
-16z"/>
<path d="M20237 7899 c-8 -31 4 -189 14 -183 12 7 12 191 0 198 -5 3 -11 -4
-14 -15z"/>
<path d="M522 7838 c3 -35 30 -50 51 -29 8 8 4 18 -13 36 -31 34 -42 32 -38
-7z"/>
<path d="M757 7816 c-8 -20 25 -80 46 -84 23 -5 22 24 -3 66 -21 34 -35 40
-43 18z"/>
<path d="M715 7620 c-3 -5 1 -10 9 -10 9 0 16 5 16 10 0 6 -4 10 -9 10 -6 0
-13 -4 -16 -10z"/>
<path d="M785 7621 c-7 -13 12 -51 25 -51 6 0 10 8 10 19 0 23 -25 46 -35 32z"/>
<path d="M895 7600 c3 -5 8 -10 11 -10 2 0 4 5 4 10 0 6 -5 10 -11 10 -5 0 -7
-4 -4 -10z"/>
<path d="M20237 7544 c-9 -9 4 -188 14 -198 5 -6 9 33 9 91 0 92 -7 123 -23
107z"/>
<path d="M887 7524 c-13 -13 -7 -44 8 -44 8 0 15 7 15 15 0 8 0 18 1 22 1 10
-16 15 -24 7z"/>
<path d="M18994 7360 c7 -47 12 -57 22 -47 13 13 6 59 -11 75 -17 16 -17 15
-11 -28z"/>
<path d="M564 7366 c-7 -20 2 -46 16 -46 13 0 13 47 0 55 -6 3 -13 -1 -16 -9z"/>
<path d="M677 7284 c-15 -15 -7 -45 11 -42 9 2 17 12 17 22 0 20 -16 31 -28
20z"/>
<path d="M542 7248 c-19 -19 -14 -45 14 -67 30 -24 54 -27 72 -9 18 18 14 38
-7 38 -10 0 -26 11 -35 25 -18 28 -27 30 -44 13z"/>
<path d="M20238 7137 c-5 -66 1 -104 13 -85 12 18 11 125 0 132 -5 3 -11 -18
-13 -47z"/>
<path d="M698 7154 c-37 -45 -50 -54 -78 -54 -26 0 -30 -3 -30 -29 0 -58 70
-73 77 -16 2 18 16 40 33 56 17 14 30 33 30 42 0 21 -15 22 -32 1z"/>
<path d="M19095 7150 c3 -5 8 -10 11 -10 2 0 4 5 4 10 0 6 -5 10 -11 10 -5 0
-7 -4 -4 -10z"/>
<path d="M1112 7055 c0 -16 2 -22 5 -12 2 9 2 23 0 30 -3 6 -5 -1 -5 -18z"/>
<path d="M581 6901 c-12 -22 -18 -47 -15 -55 8 -20 11 -20 41 4 14 11 29 20
34 20 4 0 11 -9 14 -20 9 -30 21 -25 44 21 23 43 19 74 -6 40 -19 -28 -43 -26
-70 5 l-22 26 -20 -41z"/>
<path d="M19020 6850 c0 -5 5 -10 10 -10 6 0 10 5 10 10 0 6 -4 10 -10 10 -5
0 -10 -4 -10 -10z"/>
<path d="M20240 6755 c0 -53 4 -84 10 -80 11 7 10 154 -2 161 -4 3 -8 -34 -8
-81z"/>
<path d="M605 6790 c-7 -21 22 -73 36 -64 5 3 9 23 9 45 0 32 -3 39 -19 39
-11 0 -22 -9 -26 -20z"/>
<path d="M727 6783 c-3 -5 -2 -15 3 -22 10 -17 43 -6 38 12 -6 15 -34 22 -41
10z"/>
<path d="M1330 6764 c0 -8 5 -12 10 -9 6 4 8 11 5 16 -9 14 -15 11 -15 -7z"/>
<path d="M620 6671 c0 -6 5 -13 10 -16 6 -3 10 1 10 9 0 9 -4 16 -10 16 -5 0
-10 -4 -10 -9z"/>
<path d="M1412 6648 c2 -13 8 -23 13 -23 6 0 11 10 13 23 2 15 -2 22 -13 22
-11 0 -15 -7 -13 -22z"/>
<path d="M904 6626 c-7 -20 2 -46 16 -46 13 0 13 47 0 55 -6 3 -13 -1 -16 -9z"/>
<path d="M621 6577 c-8 -10 -7 -19 3 -32 12 -16 16 -17 30 -6 22 19 21 51 -3
51 -10 0 -24 -6 -30 -13z"/>
<path d="M19007 6573 c-13 -12 -7 -54 9 -60 25 -10 39 12 26 42 -12 25 -23 31
-35 18z"/>
<path d="M520 6501 c0 -42 14 -61 32 -43 15 15 1 82 -17 82 -11 0 -15 -12 -15
-39z"/>
<path d="M1380 6461 c0 -24 26 -47 33 -29 5 16 -10 48 -23 48 -6 0 -10 -8 -10
-19z"/>
<path d="M619 6443 c-11 -28 -3 -53 19 -61 12 -4 27 61 17 77 -11 19 -25 12
-36 -16z"/>
<path d="M20242 6385 c0 -16 2 -22 5 -12 2 9 2 23 0 30 -3 6 -5 -1 -5 -18z"/>
<path d="M19029 6353 c-13 -35 -8 -68 11 -68 11 0 16 13 18 48 3 52 -12 64
-29 20z"/>
<path d="M1392 6313 c-16 -31 -24 -121 -11 -128 20 -13 37 20 41 79 3 61 -11
85 -30 49z"/>
<path d="M527 6246 c-9 -7 -17 -19 -17 -27 0 -9 8 -6 22 9 25 24 22 37 -5 18z"/>
<path d="M1113 6223 c-7 -19 14 -61 39 -77 14 -8 21 -7 34 6 15 15 14 19 -11
52 -30 39 -52 46 -62 19z"/>
<path d="M19030 6195 c0 -8 5 -15 10 -15 6 0 10 7 10 15 0 8 -4 15 -10 15 -5
0 -10 -7 -10 -15z"/>
<path d="M19018 6121 c-18 -25 -14 -57 9 -65 33 -13 40 10 20 58 l-13 30 -16
-23z"/>
<path d="M20241 6080 c0 -33 1 -34 11 -12 8 17 8 26 0 34 -9 9 -12 4 -11 -22z"/>
<path d="M750 6080 c0 -5 5 -10 10 -10 6 0 10 5 10 10 0 6 -4 10 -10 10 -5 0
-10 -4 -10 -10z"/>
<path d="M20245 5989 c-4 -26 -3 -45 4 -52 8 -8 11 3 11 41 0 63 -6 67 -15 11z"/>
<path d="M1342 5998 c-13 -13 -16 -41 -5 -51 10 -10 33 13 33 34 0 23 -14 31
-28 17z"/>
<path d="M750 5960 c0 -25 4 -30 24 -30 33 0 42 17 20 41 -26 28 -44 24 -44
-11z"/>
<path d="M19050 5970 c-31 -4 -35 -8 -35 -35 0 -41 25 -43 54 -5 28 39 25 46
-19 40z"/>
<path d="M1150 5935 c-10 -12 -10 -21 -1 -41 13 -29 31 -23 31 9 0 36 -14 51
-30 32z"/>
<path d="M1450 5939 c0 -5 5 -7 10 -4 6 3 10 8 10 11 0 2 -4 4 -10 4 -5 0 -10
-5 -10 -11z"/>
<path d="M708 5889 c-22 -12 -24 -57 -3 -65 23 -9 46 16 43 44 -3 29 -16 36
-40 21z"/>
<path d="M878 5878 c-8 -21 2 -38 23 -38 21 0 25 20 7 38 -15 15 -25 15 -30 0z"/>
<path d="M800 5822 c0 -5 7 -27 16 -48 9 -22 20 -61 24 -89 4 -27 10 -57 14
-67 6 -12 0 -18 -25 -23 -31 -7 -31 -8 -25 -52 3 -25 6 -54 6 -64 0 -10 9 -23
20 -29 16 -9 22 -6 35 21 10 19 15 49 14 77 -3 38 0 48 14 50 25 5 21 28 -14
76 -27 38 -29 45 -18 70 11 23 10 30 -8 54 -20 27 -53 42 -53 24z"/>
<path d="M708 5769 c-26 -15 -22 -44 7 -57 29 -13 39 -1 33 39 -4 26 -16 32
-40 18z"/>
<path d="M542 5738 c2 -12 10 -23 18 -23 22 0 19 39 -3 43 -15 3 -18 -1 -15
-20z"/>
<path d="M1493 5675 c-3 -9 -3 -18 0 -21 9 -9 27 6 27 22 0 19 -19 18 -27 -1z"/>
<path d="M633 5613 c-18 -20 -33 -39 -33 -43 0 -4 12 -15 26 -25 14 -9 32 -32
40 -50 15 -37 32 -52 44 -39 4 5 5 50 1 99 -5 80 -8 90 -26 92 -12 2 -33 -12
-52 -34z"/>
<path d="M1102 5638 c5 -15 28 -18 29 -3 0 6 -7 12 -17 13 -10 3 -15 -1 -12
-10z"/>
<path d="M1313 5613 c-17 -6 -16 -18 3 -37 23 -24 34 -19 34 14 0 29 -9 35
-37 23z"/>
<path d="M20235 5530 c-7 -40 -2 -60 16 -60 5 0 9 23 9 50 0 60 -16 66 -25 10z"/>
<path d="M1351 5481 c-25 -53 -22 -69 18 -105 31 -28 49 -8 26 27 -16 25 -16
28 1 57 14 23 16 35 8 47 -18 29 -29 24 -53 -26z"/>
<path d="M1491 5504 c0 -11 3 -14 6 -6 3 7 2 16 -1 19 -3 4 -6 -2 -5 -13z"/>
<path d="M521 5464 c0 -11 3 -14 6 -6 3 7 2 16 -1 19 -3 4 -6 -2 -5 -13z"/>
<path d="M590 5459 c0 -5 5 -7 10 -4 6 3 10 8 10 11 0 2 -4 4 -10 4 -5 0 -10
-5 -10 -11z"/>
<path d="M906 5455 c-3 -10 7 -29 28 -50 19 -18 36 -39 39 -47 2 -7 8 -10 12
-6 8 8 -9 62 -30 95 -18 26 -40 30 -49 8z"/>
<path d="M737 5436 c-3 -8 -18 -20 -34 -28 -21 -10 -29 -21 -31 -47 -3 -31 -2
-33 22 -27 22 5 27 2 32 -19 10 -38 29 -24 29 21 0 25 8 49 22 68 13 16 20 32
17 37 -8 14 -51 10 -57 -5z"/>
<path d="M19017 5423 c-14 -13 -7 -63 8 -63 10 0 15 11 15 35 0 33 -8 43 -23
28z"/>
<path d="M825 5400 c-4 -6 -3 -24 0 -41 5 -24 11 -29 28 -27 25 3 35 41 17 64
-14 16 -36 18 -45 4z"/>
<path d="M1496 5403 c-11 -11 -6 -23 9 -23 8 0 15 4 15 9 0 13 -16 22 -24 14z"/>
<path d="M385 5337 c-4 -10 -5 -21 -1 -24 10 -10 18 4 13 24 -4 17 -4 17 -12
0z"/>
<path d="M1363 5296 c-13 -6 -24 -15 -26 -21 -7 -17 5 -75 15 -75 6 0 7 7 4
16 -10 25 4 62 25 67 10 3 19 10 19 16 0 13 -7 12 -37 -3z"/>
<path d="M1018 5255 c-9 -20 -9 -28 1 -38 10 -9 16 -7 31 11 20 25 17 52 -6
52 -8 0 -20 -11 -26 -25z"/>
<path d="M656 5251 c-21 -23 -18 -54 7 -59 12 -2 22 7 31 30 21 49 -3 68 -38
29z"/>
<path d="M518 5203 c-17 -42 -14 -321 4 -356 9 -18 11 -18 34 4 26 24 31 58
12 88 -9 14 -8 30 5 69 22 65 21 74 -3 105 l-20 26 20 6 c26 8 25 25 -1 59
-26 33 -37 33 -51 -1z"/>
<path d="M19876 5211 c-4 -7 -5 -15 -2 -18 9 -9 19 4 14 18 -4 11 -6 11 -12 0z"/>
<path d="M1377 5116 c-3 -8 -14 -12 -25 -9 -38 9 -39 -70 -1 -82 23 -7 24 -23
4 -49 -21 -28 -19 -63 6 -76 33 -18 52 5 45 55 -3 22 -8 69 -11 104 -5 68 -9
81 -18 57z"/>
<path d="M692 5108 c5 -15 28 -23 28 -10 0 5 -7 13 -16 16 -10 4 -14 1 -12 -6z"/>
<path d="M1000 5085 c0 -17 5 -25 13 -22 6 2 12 12 12 22 0 10 -6 20 -12 23
-8 2 -13 -6 -13 -23z"/>
<path d="M391 5072 c-11 -21 -5 -52 10 -52 14 0 23 50 11 62 -7 7 -14 4 -21
-10z"/>
<path d="M1492 5063 c-14 -26 -16 -60 -2 -68 12 -7 23 34 18 66 l-3 24 -13
-22z"/>
<path d="M646 5041 c-4 -6 -6 -25 -5 -43 2 -18 -3 -43 -9 -54 -9 -17 -9 -24 3
-34 19 -16 35 -4 35 24 0 13 7 29 15 36 8 7 15 18 15 24 0 19 -47 59 -54 47z"/>
<path d="M986 5021 c-4 -7 -5 -15 -2 -18 9 -9 19 4 14 18 -4 11 -6 11 -12 0z"/>
<path d="M852 4964 c1 -9 9 -19 16 -22 9 -3 13 2 10 14 -1 9 -9 19 -16 22 -9
3 -13 -2 -10 -14z"/>
<path d="M20251 4954 c0 -11 3 -14 6 -6 3 7 2 16 -1 19 -3 4 -6 -2 -5 -13z"/>
<path d="M386 4932 c-4 -11 -4 -33 -1 -49 4 -15 8 -38 11 -51 9 -45 26 -10 22
45 -5 60 -22 88 -32 55z"/>
<path d="M722 4908 c-37 -86 -10 -277 40 -286 20 -4 74 71 63 87 -3 6 -19 11
-36 11 -32 0 -39 19 -14 40 22 18 18 50 -7 78 l-23 24 28 22 c30 24 35 51 11
60 -32 12 -43 5 -62 -36z"/>
<path d="M972 4928 c-23 -23 -14 -48 17 -48 34 0 47 23 25 45 -19 18 -26 19
-42 3z"/>
<path d="M1180 4875 c0 -8 -9 -19 -20 -25 -24 -13 -28 -60 -5 -60 8 0 19 9 25
20 6 12 21 20 35 20 27 0 34 27 13 48 -17 17 -48 15 -48 -3z"/>
<path d="M1334 4865 c-10 -24 13 -67 34 -63 18 3 31 68 13 68 -5 0 -16 3 -25
6 -10 4 -18 0 -22 -11z"/>
<path d="M905 4830 c-8 -25 1 -41 20 -33 19 7 20 53 1 53 -8 0 -17 -9 -21 -20z"/>
<path d="M642 4828 c-20 -20 -14 -40 11 -36 14 2 22 10 22 22 0 24 -16 31 -33
14z"/>
<path d="M1207 4763 c-17 -16 -5 -61 23 -88 l30 -29 0 62 c0 58 -1 62 -23 62
-13 0 -27 -3 -30 -7z"/>
<path d="M1380 4736 c0 -16 -5 -45 -12 -63 -10 -26 -9 -36 1 -45 10 -11 15 -9
27 6 18 25 18 74 -1 106 l-14 25 -1 -29z"/>
<path d="M1110 4715 c0 -8 5 -15 10 -15 6 0 10 7 10 15 0 8 -4 15 -10 15 -5 0
-10 -7 -10 -15z"/>
<path d="M397 4714 c-10 -10 -9 -52 2 -58 5 -3 11 0 13 7 7 17 -6 60 -15 51z"/>
<path d="M960 4705 c-9 -11 -10 -19 -2 -27 13 -13 28 -4 35 22 6 24 -15 27
-33 5z"/>
<path d="M1170 4633 c0 -5 12 -26 25 -48 14 -22 25 -52 25 -67 0 -37 19 -46
40 -18 16 22 20 22 49 10 40 -16 81 -1 81 30 0 24 -3 24 -63 6 -54 -16 -61
-11 -72 52 -7 41 -8 42 -46 42 -21 0 -39 -3 -39 -7z"/>
<path d="M890 4590 c0 -13 5 -20 13 -17 6 2 12 10 12 17 0 7 -6 15 -12 18 -8
2 -13 -5 -13 -18z"/>
<path d="M387 4528 c-7 -45 -3 -171 7 -186 23 -37 45 20 39 103 -7 99 -35 150
-46 83z"/>
<path d="M1121 4523 c-11 -24 -10 -29 10 -44 18 -14 21 -23 16 -55 -5 -29 -2
-43 12 -59 10 -11 31 -43 47 -72 l29 -52 -40 -41 c-30 -31 -36 -43 -27 -52 9
-9 15 -9 24 0 7 7 22 12 34 12 16 0 25 11 38 43 24 63 20 83 -24 131 -22 24
-40 45 -40 48 0 3 10 3 23 1 33 -7 53 21 41 55 -7 20 -15 26 -31 24 -29 -4
-73 25 -73 48 0 10 -6 23 -13 29 -11 8 -17 5 -26 -16z"/>
<path d="M865 4500 c-8 -13 16 -100 27 -100 4 0 6 23 5 52 -2 49 -17 72 -32
48z"/>
<path d="M1365 4429 c-10 -15 3 -25 16 -12 7 7 7 13 1 17 -6 3 -14 1 -17 -5z"/>
<path d="M1481 4396 c-7 -9 -23 -16 -35 -16 -11 0 -25 -4 -31 -8 -15 -11 -45
-71 -45 -90 1 -23 50 -78 78 -86 32 -11 28 14 -8 46 -43 37 -40 66 10 86 25
11 43 25 46 39 9 33 1 48 -15 29z"/>
<path d="M19962 4369 c2 -7 10 -15 17 -17 8 -3 12 1 9 9 -2 7 -10 15 -17 17
-8 3 -12 -1 -9 -9z"/>
<path d="M19240 4185 c0 -15 4 -24 10 -20 6 3 10 12 10 20 0 8 -4 17 -10 20
-6 4 -10 -5 -10 -20z"/>
<path d="M20240 4130 c0 -22 5 -40 10 -40 6 0 10 18 10 40 0 22 -4 40 -10 40
-5 0 -10 -18 -10 -40z"/>
<path d="M1215 4094 c-20 -21 -16 -48 9 -52 22 -5 36 13 36 46 0 26 -22 29
-45 6z"/>
<path d="M1190 3971 c-16 -31 -12 -59 10 -66 28 -9 40 2 40 35 0 39 -34 60
-50 31z"/>
<path d="M397 3943 c-11 -10 -7 -85 7 -123 12 -34 13 -34 24 -13 15 27 15 71
1 112 -11 31 -19 37 -32 24z"/>
<path d="M1400 3933 c-45 -30 -50 -47 -20 -63 17 -9 23 -6 40 22 33 55 25 72
-20 41z"/>
<path d="M1225 3836 c-19 -29 -10 -56 20 -56 22 0 35 22 35 63 0 25 -37 21
-55 -7z"/>
<path d="M1397 3853 c-12 -12 -7 -60 8 -73 29 -24 53 24 28 59 -15 22 -25 26
-36 14z"/>
<path d="M1438 3723 c-33 -17 -36 -33 -8 -33 12 0 20 -7 20 -18 0 -10 7 -27
15 -39 12 -18 13 -37 6 -113 -6 -58 -6 -101 0 -116 5 -14 9 -39 9 -55 0 -16 5
-29 10 -29 17 0 28 43 18 75 -4 16 -8 84 -7 150 1 131 -7 196 -25 194 -6 -1
-23 -8 -38 -16z"/>
<path d="M408 3634 c-10 -21 -9 -27 3 -35 21 -13 26 -11 31 14 9 49 -15 64
-34 21z"/>
<path d="M1356 3509 c-9 -47 -7 -59 8 -59 17 0 26 22 26 61 0 39 -26 38 -34
-2z"/>
<path d="M420 3435 c0 -9 5 -15 11 -13 6 2 11 8 11 13 0 5 -5 11 -11 13 -6 2
-11 -4 -11 -13z"/>
<path d="M19390 3440 c0 -5 5 -10 10 -10 6 0 10 5 10 10 0 6 -4 10 -10 10 -5
0 -10 -4 -10 -10z"/>
<path d="M1130 3389 c0 -19 34 -69 47 -69 16 0 17 52 1 68 -15 15 -48 16 -48
1z"/>
<path d="M1346 3385 c-17 -17 -20 -34 -10 -59 10 -25 43 -19 50 8 13 52 -10
81 -40 51z"/>
<path d="M20110 3325 c0 -9 5 -15 11 -13 6 2 11 8 11 13 0 5 -5 11 -11 13 -6
2 -11 -4 -11 -13z"/>
<path d="M500 3288 c0 -30 1 -31 15 -12 19 25 19 44 0 44 -10 0 -15 -10 -15
-32z"/>
<path d="M1363 3264 c-7 -18 14 -35 34 -27 7 3 13 14 13 24 0 24 -38 26 -47 3z"/>
<path d="M486 3226 c-3 -14 -11 -26 -16 -26 -19 0 -10 -17 16 -29 20 -9 30 -9
40 0 19 16 18 21 -10 53 l-23 28 -7 -26z"/>
<path d="M1465 3176 l-17 -26 -36 22 c-34 21 -35 21 -48 3 -18 -25 -18 -66 1
-91 8 -10 15 -32 15 -47 0 -18 4 -26 11 -21 6 3 9 19 5 35 -4 23 -1 31 17 40
12 7 28 21 35 31 8 10 21 17 30 16 11 -2 18 5 20 21 6 37 -14 47 -33 17z"/>
<path d="M20102 3169 c1 -13 8 -23 13 -21 15 3 12 35 -3 40 -9 3 -13 -3 -10
-19z"/>
<path d="M842 3153 c2 -10 10 -18 18 -18 22 0 18 29 -3 33 -14 3 -18 -1 -15
-15z"/>
<path d="M1471 3016 c-14 -58 -14 -63 4 -70 22 -8 36 28 29 74 -4 22 -10 40
-14 40 -4 0 -13 -20 -19 -44z"/>
<path d="M1327 2983 c-14 -14 -6 -45 13 -50 25 -7 25 -17 -2 -53 -21 -29 -21
-30 -4 -67 16 -36 16 -40 0 -71 -12 -24 -14 -46 -9 -78 5 -34 2 -52 -10 -71
-14 -20 -15 -31 -6 -49 6 -13 9 -50 6 -82 -2 -31 -7 -116 -10 -189 l-5 -131
30 -11 c20 -7 30 -17 30 -30 0 -26 41 -29 61 -5 9 11 22 14 47 9 29 -5 39 -2
62 20 l27 25 11 -25 c12 -26 27 -31 50 -16 16 10 25 68 11 77 -5 3 -40 10 -77
15 -37 5 -74 12 -83 15 -27 8 -30 42 -5 67 l22 22 -29 28 c-19 18 -35 26 -47
22 -42 -13 -31 41 14 70 27 18 56 11 56 -14 0 -9 5 -23 10 -31 7 -11 10 0 10
38 0 36 -4 52 -13 52 -7 0 -28 15 -46 34 -36 37 -25 55 20 30 35 -19 36 -19
42 33 6 59 -6 93 -34 93 -19 0 -21 -4 -15 -30 6 -35 -3 -38 -29 -10 -17 19
-17 30 1 103 4 17 1 38 -6 52 -8 15 -11 42 -7 71 4 40 2 50 -19 69 -14 13 -24
34 -24 49 0 19 -5 26 -18 26 -10 0 -22 -3 -25 -7z m97 -788 c25 -19 14 -45
-19 -45 -27 0 -41 20 -31 45 7 19 25 19 50 0z"/>
<path d="M399 2948 c-10 -23 -9 -31 5 -53 14 -21 20 -24 32 -14 19 16 17 39
-5 69 l-19 24 -13 -26z"/>
<path d="M19425 2830 c-4 -6 -3 -16 3 -22 6 -6 12 -6 17 2 4 6 3 16 -3 22 -6
6 -12 6 -17 -2z"/>
<path d="M19024 2706 c-10 -26 1 -71 17 -74 21 -4 30 20 22 58 -6 31 -30 41
-39 16z"/>
<path d="M19875 2570 c-3 -5 -1 -10 4 -10 6 0 11 5 11 10 0 6 -2 10 -4 10 -3
0 -8 -4 -11 -10z"/>
<path d="M19980 2550 c0 -5 5 -10 10 -10 6 0 10 5 10 10 0 6 -4 10 -10 10 -5
0 -10 -4 -10 -10z"/>
<path d="M19890 2481 c0 -11 5 -23 10 -26 6 -3 10 3 10 14 0 11 -4 23 -10 26
-5 3 -10 -3 -10 -14z"/>
<path d="M19042 2303 c4 -22 38 -30 38 -10 0 8 -7 18 -16 21 -23 9 -26 8 -22
-11z"/>
<path d="M19290 2297 c0 -22 27 -57 43 -57 12 0 8 55 -5 68 -19 19 -38 14 -38
-11z"/>
<path d="M10980 2290 c-12 -8 -10 -10 8 -10 13 0 20 4 17 10 -7 12 -6 12 -25
0z"/>
<path d="M10376 2281 c-7 -11 49 -25 64 -16 6 3 8 11 5 16 -8 12 -62 12 -69 0z"/>
<path d="M10540 2280 c0 -5 8 -10 19 -10 10 0 24 -7 31 -15 7 -8 21 -15 32
-15 23 0 36 29 17 41 -19 12 -99 11 -99 -1z"/>
<path d="M10730 2281 c0 -16 38 -23 60 -11 29 16 25 20 -20 20 -22 0 -40 -4
-40 -9z"/>
<path d="M11885 2280 c3 -5 10 -10 16 -10 5 0 9 5 9 10 0 6 -7 10 -16 10 -8 0
-12 -4 -9 -10z"/>
<path d="M6230 2270 c0 -5 4 -10 9 -10 6 0 13 5 16 10 3 6 -1 10 -9 10 -9 0
-16 -4 -16 -10z"/>
<path d="M11780 2270 c-11 -7 -12 -14 -2 -35 15 -32 45 -30 50 2 4 25 -27 46
-48 33z"/>
<path d="M12362 2268 c-17 -17 -15 -38 3 -33 49 16 48 15 35 30 -15 18 -22 19
-38 3z"/>
<path d="M3246 2261 c-7 -11 22 -23 35 -15 5 3 7 10 4 15 -8 12 -32 12 -39 0z"/>
<path d="M5677 2263 c-13 -12 -7 -32 11 -37 9 -3 39 -8 65 -12 43 -6 49 -5 45
11 -2 12 -20 22 -53 31 -60 16 -60 16 -68 7z"/>
<path d="M5015 2230 c-17 -11 -47 -20 -68 -20 -42 0 -58 -20 -36 -46 10 -13
24 -15 64 -9 44 6 414 17 502 15 33 -1 63 21 63 46 0 10 -12 14 -41 14 -23 0
-59 5 -80 12 -32 9 -42 9 -56 -4 -15 -13 -39 -14 -148 -8 -71 4 -139 11 -150
14 -12 4 -32 -1 -50 -14z"/>
<path d="M452 2228 c-19 -19 -15 -48 7 -48 20 0 37 32 26 50 -8 13 -18 13 -33
-2z"/>
<path d="M4457 2233 c-19 -19 -5 -42 29 -49 47 -9 63 7 35 35 -21 21 -51 27
-64 14z"/>
<path d="M4706 2233 c-4 -5 -33 -10 -63 -13 -31 -3 -58 -10 -60 -16 -2 -7 24
-21 63 -34 59 -19 74 -20 113 -10 46 11 71 26 71 40 0 9 -79 40 -101 40 -9 0
-19 -3 -23 -7z"/>
<path d="M18152 2229 c2 -7 10 -15 17 -17 8 -3 12 1 9 9 -2 7 -10 15 -17 17
-8 3 -12 -1 -9 -9z"/>
<path d="M2868 2219 c-24 -13 -23 -21 7 -53 42 -46 124 -27 94 23 -13 20 -50
41 -72 41 -7 0 -20 -5 -29 -11z"/>
<path d="M3317 2200 c-41 -36 -54 -36 -152 -9 -41 11 -84 17 -95 14 -25 -8
-27 -53 -2 -62 9 -3 35 -13 57 -23 82 -37 182 -29 208 16 4 8 26 23 48 34 42
22 46 29 27 48 -20 20 -56 13 -91 -18z"/>
<path d="M3454 2218 c-13 -21 28 -40 73 -33 23 3 50 2 60 -4 10 -5 36 -13 58
-18 34 -7 41 -12 43 -35 4 -37 31 -36 45 2 6 17 17 30 24 30 18 0 26 19 14 34
-14 17 -145 27 -182 14 -19 -7 -37 -5 -64 6 -45 19 -61 20 -71 4z"/>
<path d="M8216 2223 c-14 -14 -3 -25 41 -44 37 -16 53 -18 70 -10 34 15 28 29
-14 36 -21 4 -50 10 -65 15 -14 5 -29 6 -32 3z"/>
<path d="M8767 2224 c-9 -9 2 -24 17 -24 7 0 21 7 32 15 18 14 17 14 -12 15
-17 0 -34 -3 -37 -6z"/>
<path d="M9021 2219 c-20 -8 -21 -12 -10 -25 14 -17 60 -15 66 3 6 18 -29 32
-56 22z"/>
<path d="M9535 2220 c-3 -5 3 -10 14 -10 12 0 21 5 21 10 0 6 -6 10 -14 10 -8
0 -18 -4 -21 -10z"/>
<path d="M12554 2215 c-9 -24 6 -37 34 -30 51 13 46 44 -6 45 -12 0 -25 -7
-28 -15z"/>
<path d="M13490 2220 c-13 -8 -12 -10 3 -10 9 0 17 5 17 10 0 12 -1 12 -20 0z"/>
<path d="M7481 2206 c-20 -6 -31 -15 -31 -27 0 -23 6 -23 60 -4 39 14 45 14
60 0 32 -29 100 -9 100 29 0 15 -139 16 -189 2z"/>
<path d="M7995 2210 c-7 -12 34 -30 53 -23 19 8 14 20 -10 27 -31 8 -36 8 -43
-4z"/>
<path d="M9428 2213 c7 -3 16 -2 19 1 4 3 -2 6 -13 5 -11 0 -14 -3 -6 -6z"/>
<path d="M12010 2205 c0 -18 24 -30 40 -20 8 5 8 11 -1 21 -15 19 -39 18 -39
-1z"/>
<path d="M13820 2210 c0 -5 5 -10 10 -10 6 0 10 5 10 10 0 6 -4 10 -10 10 -5
0 -10 -4 -10 -10z"/>
<path d="M15581 2211 c-16 -10 -8 -41 11 -41 7 0 19 4 27 9 12 8 12 12 2 25
-15 18 -21 19 -40 7z"/>
<path d="M1732 2199 c-12 -5 -22 -17 -22 -27 0 -10 -9 -27 -20 -37 -15 -13
-17 -22 -9 -36 15 -28 63 -25 87 6 22 28 38 31 61 11 9 -7 44 -16 78 -20 55
-6 63 -5 76 14 17 25 40 18 55 -16 13 -28 27 -30 81 -8 30 12 44 13 60 5 25
-14 57 -14 120 0 57 12 69 30 39 58 -18 17 -23 18 -42 6 -17 -11 -38 -12 -106
-4 -47 5 -93 8 -104 5 -10 -3 -29 -1 -41 4 -17 6 -27 5 -36 -6 -15 -19 -57
-10 -82 17 -10 10 -28 21 -40 24 -43 9 -134 12 -155 4z"/>
<path d="M2389 2206 c-3 -3 -3 -23 -1 -45 3 -34 8 -41 34 -50 40 -14 134 -14
159 0 14 7 30 7 53 -1 41 -13 60 -6 75 27 10 22 16 25 46 20 40 -7 57 10 30
30 -19 13 -101 18 -130 7 -9 -4 -21 -17 -26 -30 -11 -31 -27 -30 -39 1 -12 31
-37 42 -61 27 -25 -16 -51 -15 -75 3 -18 14 -56 20 -65 11z"/>
<path d="M6313 2195 c-3 -9 -3 -18 0 -21 6 -7 47 18 47 28 0 15 -41 8 -47 -7z"/>
<path d="M6528 2183 c-7 -16 -18 -36 -26 -45 -18 -22 -9 -35 29 -43 41 -9 46
-1 24 39 -19 34 -19 36 0 55 16 19 16 21 1 21 -9 0 -22 -12 -28 -27z"/>
<path d="M9460 2206 c0 -9 30 -14 35 -6 4 6 -3 10 -14 10 -12 0 -21 -2 -21 -4z"/>
<path d="M11495 2200 c-3 -5 1 -10 9 -10 9 0 16 5 16 10 0 6 -4 10 -9 10 -6 0
-13 -4 -16 -10z"/>
<path d="M12778 2203 c7 -3 16 -2 19 1 4 3 -2 6 -13 5 -11 0 -14 -3 -6 -6z"/>
<path d="M15795 2200 c-4 -6 7 -10 24 -10 19 0 31 -5 31 -13 0 -29 21 -35 61
-19 21 8 39 19 39 23 0 17 -34 26 -64 18 -19 -5 -34 -5 -40 1 -13 13 -43 13
-51 0z"/>
<path d="M19862 2196 c1 -10 8 -17 13 -17 15 1 12 24 -3 29 -9 3 -13 -2 -10
-12z"/>
<path d="M4160 2190 c-8 -5 -13 -10 -10 -11 3 0 14 -2 26 -4 12 -3 30 2 40 10
18 14 17 14 -11 15 -16 0 -37 -5 -45 -10z"/>
<path d="M6865 2192 c-3 -4 -30 -9 -58 -12 -39 -4 -53 -9 -55 -22 -2 -10 2
-18 8 -18 6 0 24 -10 39 -21 34 -25 53 -17 49 19 -3 23 1 27 25 30 15 2 27 7
27 12 0 11 -26 20 -35 12z"/>
<path d="M7816 2189 c7 -11 104 -12 104 -1 0 4 -25 8 -55 8 -30 1 -52 -3 -49
-7z"/>
<path d="M11085 2191 c-8 -14 12 -51 28 -51 7 0 19 5 27 10 12 7 12 13 4 27
-13 21 -49 29 -59 14z"/>
<path d="M12660 2192 c0 -10 22 -32 32 -32 15 0 8 28 -8 34 -21 8 -24 8 -24
-2z"/>
<path d="M16691 2191 c-7 -5 -11 -13 -7 -19 9 -15 42 -21 57 -11 11 8 10 12
-5 24 -23 17 -26 18 -45 6z"/>
<path d="M19120 2191 c0 -10 30 -24 37 -17 3 3 2 9 -2 15 -8 13 -35 15 -35 2z"/>
<path d="M10352 2178 c7 -20 48 -23 48 -4 0 11 -9 16 -26 16 -16 0 -24 -5 -22
-12z"/>
<path d="M10493 2182 c-22 -3 -37 -27 -27 -43 8 -13 48 -11 62 3 26 26 8 47
-35 40z"/>
<path d="M5860 2165 c7 -8 19 -15 26 -15 8 0 11 6 8 15 -4 8 -15 15 -26 15
-17 0 -18 -3 -8 -15z"/>
<path d="M5964 2163 c2 -10 7 -27 10 -38 7 -23 66 -48 111 -46 17 1 45 2 63 3
37 2 38 22 1 26 -67 7 -90 15 -124 42 -43 34 -69 39 -61 13z"/>
<path d="M10662 2163 c2 -12 14 -19 36 -21 35 -4 43 12 13 28 -30 16 -53 12
-49 -7z"/>
<path d="M12220 2164 c0 -9 7 -14 17 -12 25 5 28 28 4 28 -12 0 -21 -6 -21
-16z"/>
<path d="M12891 2163 c-20 -17 -21 -20 -8 -32 23 -19 131 -2 135 22 3 14 -4
17 -36 17 -22 0 -47 2 -55 5 -7 3 -24 -2 -36 -12z"/>
<path d="M5745 2160 c-8 -12 20 -24 35 -15 6 3 8 11 5 16 -8 12 -32 12 -40 -1z"/>
<path d="M10910 2163 c0 -4 9 -14 20 -21 11 -7 20 -21 20 -32 0 -22 12 -25 41
-10 19 11 26 45 12 53 -17 10 -93 18 -93 10z"/>
<path d="M11375 2146 c-17 -25 -15 -56 3 -56 16 0 44 38 40 56 -5 28 -25 27
-43 0z"/>
<path d="M16270 2156 c0 -16 34 -31 50 -21 22 14 10 35 -20 35 -19 0 -30 -5
-30 -14z"/>
<path d="M19198 2162 c-25 -5 -22 -28 4 -46 31 -22 38 -20 38 8 0 28 -18 44
-42 38z"/>
<path d="M14485 2150 c-7 -12 2 -30 16 -30 5 0 9 9 9 20 0 21 -15 27 -25 10z"/>
<path d="M14610 2150 c0 -5 5 -10 10 -10 6 0 10 5 10 10 0 6 -4 10 -10 10 -5
0 -10 -4 -10 -10z"/>
<path d="M9575 2129 c-23 -11 -51 -16 -66 -13 -53 10 -107 -33 -62 -50 28 -11
125 5 160 25 26 17 43 38 43 55 0 9 -38 1 -75 -17z"/>
<path d="M12808 2132 c-16 -10 -28 -23 -28 -29 0 -22 37 -14 54 12 26 40 20
44 -26 17z"/>
<path d="M6292 2128 c-19 -19 -14 -30 11 -26 12 2 22 9 22 17 0 19 -18 24 -33
9z"/>
<path d="M6698 2133 c7 -3 16 -2 19 1 4 3 -2 6 -13 5 -11 0 -14 -3 -6 -6z"/>
<path d="M6882 2124 c-12 -8 -20 -20 -17 -25 9 -14 72 -11 77 4 14 36 -21 49
-60 21z"/>
<path d="M8803 2133 c-20 -3 -33 -10 -33 -18 0 -23 37 -36 95 -33 54 3 54 3
42 28 -13 26 -38 32 -104 23z"/>
<path d="M9827 2120 c-14 -11 -34 -20 -46 -20 -24 0 -71 -20 -71 -31 0 -15 45
-39 72 -39 21 0 29 6 34 25 5 22 11 25 53 24 25 0 63 0 84 1 23 1 45 -4 56
-14 14 -12 29 -15 58 -10 28 4 48 2 64 -9 15 -9 50 -15 92 -16 59 0 67 2 67
19 0 28 -18 35 -90 36 -104 2 -173 15 -193 35 -21 22 -35 23 -60 5 -16 -12
-24 -12 -52 0 -42 17 -37 18 -68 -6z"/>
<path d="M4058 2119 c-18 -10 -26 -69 -9 -69 15 0 61 41 61 55 0 7 -7 16 -16
19 -19 7 -15 8 -36 -5z"/>
<path d="M5598 2119 c-30 -17 -20 -29 22 -29 29 0 40 4 40 15 0 8 -4 15 -9 15
-5 0 -15 2 -23 5 -7 2 -21 0 -30 -6z"/>
<path d="M7012 2120 c-12 -5 -25 -16 -28 -24 -3 -9 -16 -18 -27 -22 -12 -3
-32 -16 -45 -27 -19 -18 -27 -19 -50 -11 -18 7 -66 8 -132 3 -80 -5 -113 -4
-138 7 -29 12 -38 12 -63 -2 -19 -9 -54 -14 -97 -14 -91 2 -152 -9 -152 -26 0
-23 27 -27 77 -14 25 8 51 13 57 12 6 -1 40 -7 76 -13 103 -17 220 -12 252 11
21 16 32 18 53 10 15 -6 39 -10 55 -10 16 0 32 -4 35 -10 20 -32 112 13 117
57 3 25 7 28 38 28 32 0 35 -2 35 -30 0 -23 -7 -33 -27 -43 -16 -7 -28 -20
-28 -28 0 -18 39 -18 64 1 13 10 25 11 43 4 53 -20 57 13 8 60 -19 18 -35 39
-35 47 0 11 -50 46 -62 43 -2 0 -13 -4 -26 -9z"/>
<path d="M13717 2124 c-16 -16 -6 -35 16 -32 12 2 22 10 22 18 0 16 -26 25
-38 14z"/>
<path d="M5190 2108 c18 -19 77 -31 85 -18 8 12 -5 18 -56 26 -39 6 -42 5 -29
-8z"/>
<path d="M5420 2105 c0 -11 11 -15 40 -15 22 0 49 -5 59 -12 11 -7 26 -8 37
-3 17 8 17 9 -6 13 -13 2 -33 10 -44 18 -28 19 -86 19 -86 -1z"/>
<path d="M7240 2110 c0 -5 7 -10 16 -10 8 0 12 5 9 10 -3 6 -10 10 -16 10 -5
0 -9 -4 -9 -10z"/>
<path d="M8653 2104 c-3 -8 -1 -20 5 -26 16 -16 42 -2 42 22 0 24 -38 28 -47
4z"/>
<path d="M15362 2093 c2 -11 14 -19 31 -21 29 -4 35 6 15 26 -19 19 -50 15
-46 -5z"/>
<path d="M6240 2088 c-33 -12 -35 -15 -20 -33 18 -22 29 -19 41 11 12 33 10
34 -21 22z"/>
<path d="M13300 2091 c0 -14 37 -23 60 -16 34 11 22 25 -20 25 -22 0 -40 -4
-40 -9z"/>
<path d="M11570 2070 c0 -20 4 -22 33 -16 22 4 40 1 52 -9 22 -16 65 -20 65
-6 0 14 -18 23 -59 32 -20 5 -48 11 -63 15 -24 5 -28 3 -28 -16z"/>
<path d="M8140 2066 c0 -22 29 -41 42 -28 8 8 8 15 -2 27 -16 19 -40 20 -40 1z"/>
<path d="M13995 2070 c-3 -5 -1 -10 4 -10 6 0 11 5 11 10 0 6 -2 10 -4 10 -3
0 -8 -4 -11 -10z"/>
<path d="M16790 2066 c0 -15 48 -31 59 -21 7 8 -28 35 -46 35 -7 0 -13 -6 -13
-14z"/>
<path d="M19270 2071 c0 -31 40 -82 96 -123 62 -45 64 -46 41 -15 -13 17 -32
49 -43 70 -18 37 -94 91 -94 68z"/>
<path d="M7793 2055 c-3 -9 -4 -17 -2 -19 8 -7 49 13 49 24 0 16 -40 12 -47
-5z"/>
<path d="M10362 2053 c4 -23 68 -32 68 -10 0 16 -21 27 -52 27 -13 0 -18 -6
-16 -17z"/>
<path d="M11893 2063 c-35 -2 -63 -8 -63 -12 0 -11 67 -51 85 -51 7 0 23 11
36 25 13 13 35 25 49 25 20 0 22 2 10 10 -8 5 -24 9 -35 8 -11 -1 -48 -3 -82
-5z"/>
<path d="M14658 2063 c6 -2 18 -2 25 0 6 3 1 5 -13 5 -14 0 -19 -2 -12 -5z"/>
<path d="M16512 2052 c-37 -18 -39 -45 -5 -50 25 -4 78 42 68 58 -8 14 -24 12
-63 -8z"/>
<path d="M4227 2038 c11 -13 26 -33 32 -45 13 -26 41 -31 41 -7 0 21 -54 74
-76 74 -16 0 -15 -2 3 -22z"/>
<path d="M18270 2050 c0 -20 46 -33 69 -21 12 7 19 16 16 22 -8 12 -85 12 -85
-1z"/>
<path d="M3055 2040 c-8 -13 15 -24 27 -12 6 6 4 11 -6 15 -8 3 -18 2 -21 -3z"/>
<path d="M15030 2035 c-13 -16 -11 -18 43 -29 15 -3 38 -9 52 -12 40 -10 31
23 -11 41 -46 19 -68 19 -84 0z"/>
<path d="M16960 2042 c0 -14 23 -32 41 -32 24 0 35 20 18 31 -18 11 -59 12
-59 1z"/>
<path d="M2912 2028 c-15 -15 2 -38 28 -38 22 0 32 24 17 39 -14 14 -30 14
-45 -1z"/>
<path d="M4410 2025 c-10 -12 -10 -18 0 -31 30 -35 72 -40 84 -8 3 9 -8 21
-33 34 -34 17 -41 18 -51 5z"/>
<path d="M4616 2024 c-9 -25 -8 -31 20 -63 30 -36 76 -42 107 -13 14 13 38 17
96 18 76 1 151 18 151 34 0 21 -38 29 -101 20 -35 -5 -83 -10 -106 -10 -24 0
-43 -4 -43 -9 0 -15 -32 -22 -46 -10 -8 6 -14 20 -14 30 0 24 -55 27 -64 3z"/>
<path d="M5070 2028 c-60 -13 -76 -27 -53 -43 34 -23 63 -27 93 -11 27 13 35
13 65 0 25 -10 41 -11 60 -4 40 15 25 35 -30 38 -26 2 -57 9 -69 16 -16 10
-33 11 -66 4z"/>
<path d="M6080 2025 c-10 -13 -10 -19 5 -35 22 -24 53 -26 62 -3 4 10 -2 23
-16 35 -28 22 -35 22 -51 3z"/>
<path d="M18133 2028 c2 -7 12 -13 22 -13 10 0 20 6 23 13 2 7 -6 12 -23 12
-17 0 -25 -5 -22 -12z"/>
<path d="M1651 2017 c-17 -21 -3 -27 59 -27 44 0 63 -5 90 -25 25 -18 47 -25
80 -25 49 0 70 13 70 42 0 13 8 18 29 18 31 0 49 14 31 25 -10 6 -77 -13 -95
-27 -17 -15 -67 -8 -92 12 -31 24 -153 29 -172 7z"/>
<path d="M3180 2020 c-13 -8 -13 -11 1 -25 19 -19 51 -9 47 14 -4 19 -27 25
-48 11z"/>
<path d="M5284 2019 c-3 -6 0 -17 8 -25 11 -12 29 -13 81 -8 37 4 64 11 61 16
-3 5 -23 7 -43 3 -28 -5 -41 -2 -51 9 -14 18 -46 21 -56 5z"/>
<path d="M7561 2007 c-17 -19 -19 -26 -9 -34 16 -14 138 -28 138 -16 0 12 -77
73 -93 73 -7 0 -23 -11 -36 -23z"/>
<path d="M8314 2022 c-7 -4 -13 -16 -16 -27 -4 -21 -20 -23 -171 -24 -63 0
-83 -19 -54 -49 13 -13 23 -14 50 -5 22 6 40 7 51 1 9 -5 25 -7 35 -3 11 3 30
8 43 10 13 3 29 14 37 25 19 29 69 27 73 -2 5 -35 34 -34 53 1 11 22 23 31 41
31 16 0 23 4 18 11 -3 6 -18 9 -32 6 -16 -3 -42 3 -64 14 -41 21 -48 22 -64
11z"/>
<path d="M15706 2022 c-9 -15 35 -55 47 -43 7 7 5 17 -8 31 -20 22 -31 25 -39
12z"/>
<path d="M15943 2017 c-35 -16 -28 -23 37 -39 68 -17 84 -9 43 20 -40 27 -55
31 -80 19z"/>
<path d="M18002 2018 c-20 -20 -14 -29 21 -26 20 2 32 8 32 18 0 19 -36 25
-53 8z"/>
<path d="M7220 2001 c0 -24 25 -34 51 -21 32 18 23 40 -16 40 -28 0 -35 -4
-35 -19z"/>
<path d="M7755 1998 c-14 -21 -14 -24 0 -34 33 -24 84 -26 112 -5 14 12 41 21
59 21 19 0 34 5 34 10 0 15 -41 12 -74 -5 -41 -21 -63 -19 -82 10 -20 31 -28
31 -49 3z"/>
<path d="M16280 2013 c-35 -7 -46 -19 -30 -38 18 -22 53 -18 78 8 32 34 19 42
-48 30z"/>
<path d="M1494 1999 c-7 -13 13 -29 37 -29 23 0 30 11 18 27 -14 16 -45 17
-55 2z"/>
<path d="M5894 1996 c-18 -14 -18 -15 9 -21 30 -8 54 6 43 24 -10 15 -28 14
-52 -3z"/>
<path d="M9190 1989 c-24 -20 -24 -20 -2 -15 51 13 62 18 62 27 0 16 -34 9
-60 -12z"/>
<path d="M397 1993 c-10 -9 -8 -43 2 -43 5 0 14 7 21 15 17 21 -4 48 -23 28z"/>
<path d="M5790 1990 c-13 -9 -13 -11 0 -20 8 -5 20 -10 25 -10 6 0 17 5 25 10
13 9 13 11 0 20 -8 5 -19 10 -25 10 -5 0 -17 -5 -25 -10z"/>
<path d="M6000 1985 c0 -9 5 -15 11 -13 6 2 11 8 11 13 0 5 -5 11 -11 13 -6 2
-11 -4 -11 -13z"/>
<path d="M8540 1990 c0 -5 5 -10 10 -10 6 0 10 5 10 10 0 6 -4 10 -10 10 -5 0
-10 -4 -10 -10z"/>
<path d="M8812 1988 c-14 -14 -16 -38 -4 -38 14 0 43 36 35 43 -9 10 -17 9
-31 -5z"/>
<path d="M10900 1990 c0 -5 5 -10 11 -10 5 0 7 5 4 10 -3 6 -8 10 -11 10 -2 0
-4 -4 -4 -10z"/>
<path d="M1381 1981 c-11 -7 -9 -13 8 -30 11 -11 30 -21 41 -21 21 0 45 34 35
50 -8 12 -65 13 -84 1z"/>
<path d="M2104 1963 c-13 -14 -34 -31 -46 -37 -12 -6 -25 -24 -29 -39 -7 -25
-5 -28 14 -25 12 2 28 15 35 31 9 18 21 27 36 27 13 0 31 9 41 20 15 16 15 22
5 35 -17 21 -27 19 -56 -12z"/>
<path d="M2430 1977 c0 -21 12 -28 27 -16 19 16 16 29 -7 29 -11 0 -20 -6 -20
-13z"/>
<path d="M5548 1983 c6 -2 18 -2 25 0 6 3 1 5 -13 5 -14 0 -19 -2 -12 -5z"/>
<path d="M15240 1980 c0 -5 7 -10 16 -10 8 0 12 5 9 10 -3 6 -10 10 -16 10 -5
0 -9 -4 -9 -10z"/>
<path d="M19956 1940 c-7 -55 -4 -66 13 -55 13 7 14 74 2 93 -5 9 -11 -4 -15
-38z"/>
<path d="M8680 1969 c0 -5 5 -7 10 -4 6 3 10 8 10 11 0 2 -4 4 -10 4 -5 0 -10
-5 -10 -11z"/>
<path d="M10100 1970 c0 -12 27 -18 103 -23 57 -4 83 7 56 23 -18 12 -159 11
-159 0z"/>
<path d="M12192 1964 c-12 -8 -22 -19 -22 -25 0 -14 74 -11 95 4 42 32 -29 52
-73 21z"/>
<path d="M14280 1955 c-17 -18 -21 -28 -13 -36 20 -20 72 28 57 52 -9 14 -19
11 -44 -16z"/>
<path d="M2545 1960 c-8 -13 4 -50 16 -50 15 0 10 -46 -6 -60 -16 -14 -20 -56
-6 -64 16 -10 41 5 41 25 0 24 39 49 93 61 96 21 93 21 120 -7 l25 -27 47 27
47 28 -43 37 -43 37 -54 -17 c-30 -9 -58 -23 -62 -30 -7 -12 -13 -12 -35 0
-24 13 -28 12 -36 -3 -10 -17 -40 -23 -52 -10 -4 3 -2 12 4 19 6 8 9 21 5 29
-6 17 -51 21 -61 5z"/>
<path d="M2985 1934 c-28 -19 -51 -39 -53 -44 -7 -20 20 -50 44 -50 19 0 28 8
39 34 25 59 74 58 75 -1 0 -29 35 -61 83 -75 32 -10 44 -9 70 4 24 12 57 15
130 14 54 -2 100 1 103 6 9 15 51 8 77 -12 35 -28 57 -26 57 5 0 19 -10 28
-47 45 -41 18 -53 20 -81 10 -17 -6 -42 -8 -54 -4 -12 4 -47 10 -78 15 -92 14
-143 26 -184 43 -23 10 -49 15 -64 11 -17 -4 -31 0 -46 14 l-22 21 -49 -36z"/>
<path d="M3552 1963 c-19 -8 -4 -23 24 -23 16 0 24 5 22 13 -5 13 -26 18 -46
10z"/>
<path d="M7975 1960 c3 -5 15 -10 26 -10 10 0 19 5 19 10 0 6 -12 10 -26 10
-14 0 -23 -4 -19 -10z"/>
<path d="M9350 1956 c0 -21 23 -35 72 -44 25 -5 56 -16 69 -25 26 -19 39 -21
39 -8 0 5 -15 14 -32 22 -18 7 -49 25 -68 41 -37 30 -80 37 -80 14z"/>
<path d="M9873 1963 c-23 -9 -14 -31 18 -42 46 -16 36 -46 -16 -46 -34 0 -40
3 -43 23 -3 20 -35 42 -62 42 -9 0 -19 -60 -13 -77 3 -7 14 -13 25 -13 10 0
30 -12 43 -26 21 -22 30 -25 59 -20 28 5 37 3 50 -15 12 -18 18 -20 30 -10 8
7 18 21 21 32 4 11 23 26 42 34 40 17 36 32 -12 37 -20 2 -34 11 -42 28 -23
47 -63 68 -100 53z"/>
<path d="M10667 1963 c-15 -14 -5 -21 39 -28 50 -7 82 7 54 25 -17 11 -83 13
-93 3z"/>
<path d="M11015 1961 c-8 -14 10 -22 30 -15 13 5 14 8 3 15 -17 11 -26 11 -33
0z"/>
<path d="M11827 1961 c-48 -8 -49 -21 -3 -44 38 -18 86 -14 86 7 -1 15 -25 46
-36 45 -5 -1 -26 -5 -47 -8z"/>
<path d="M12580 1960 c0 -5 5 -10 10 -10 6 0 10 5 10 10 0 6 -4 10 -10 10 -5
0 -10 -4 -10 -10z"/>
<path d="M16790 1966 c0 -3 13 -19 28 -36 25 -27 30 -29 41 -16 16 19 6 36
-19 36 -10 0 -22 5 -25 10 -6 10 -25 14 -25 6z"/>
<path d="M12082 1947 c-23 -10 -29 -31 -12 -42 11 -7 70 22 70 34 0 14 -34 19
-58 8z"/>
<path d="M10506 1941 c-9 -13 4 -41 19 -41 16 0 47 35 38 43 -10 10 -51 8 -57
-2z"/>
<path d="M8470 1924 c-14 -7 -35 -14 -48 -14 -12 0 -25 -8 -29 -17 -13 -38
-23 -43 -54 -28 -40 21 -69 19 -69 -4 0 -14 14 -23 52 -36 36 -11 54 -13 56
-6 2 6 21 11 42 11 21 0 51 7 66 15 16 8 46 15 66 15 27 0 40 6 48 20 13 25
29 26 37 3 10 -27 23 -33 74 -33 50 0 87 19 74 40 -5 8 -20 10 -48 6 -35 -6
-44 -3 -68 20 -22 21 -30 24 -48 15 -14 -8 -33 -8 -63 -1 -53 12 -57 11 -88
-6z"/>
<path d="M13440 1930 c-11 -7 -12 -12 -3 -21 15 -15 48 -7 48 11 0 18 -24 24
-45 10z"/>
<path d="M7370 1917 c-35 -17 -37 -43 -5 -51 14 -4 33 -2 43 3 10 5 39 9 65 8
49 -2 70 12 60 40 -7 17 -128 18 -163 0z"/>
<path d="M1715 1911 c-6 -11 9 -23 19 -14 9 9 7 23 -3 23 -6 0 -12 -4 -16 -9z"/>
<path d="M4860 1910 c0 -5 7 -10 15 -10 8 0 15 5 15 10 0 6 -7 10 -15 10 -8 0
-15 -4 -15 -10z"/>
<path d="M6984 1912 c-5 -4 -17 -22 -27 -41 -22 -43 -8 -64 24 -35 11 10 32
24 47 29 l26 11 -30 21 c-17 12 -34 19 -40 15z"/>
<path d="M8893 1909 c-18 -5 -33 -16 -33 -24 0 -12 7 -11 45 2 25 8 45 19 45
24 0 11 -14 10 -57 -2z"/>
<path d="M6205 1897 c-30 -23 -8 -37 56 -37 45 0 61 4 66 16 3 9 0 20 -8 25
-21 13 -93 11 -114 -4z"/>
<path d="M9105 1899 c-4 -6 -4 -13 -1 -16 8 -8 36 5 36 17 0 13 -27 13 -35 -1z"/>
<path d="M9577 1883 c-5 -27 7 -53 24 -53 5 0 8 18 7 40 -2 46 -23 55 -31 13z"/>
<path d="M12800 1896 c0 -14 29 -31 38 -22 2 3 2 12 -1 21 -8 19 -37 20 -37 1z"/>
<path d="M3765 1885 c-16 -8 -45 -14 -62 -15 -34 0 -42 -10 -20 -28 21 -18
171 -19 197 -2 13 9 11 14 -13 35 -31 28 -57 30 -102 10z"/>
<path d="M5655 1890 c-9 -15 3 -30 25 -30 17 0 37 17 29 24 -13 11 -48 15 -54
6z"/>
<path d="M4026 1881 c-7 -11 11 -26 41 -35 26 -8 39 9 23 29 -14 16 -56 20
-64 6z"/>
<path d="M8045 1879 c-4 -6 -5 -13 -2 -16 7 -7 27 6 27 18 0 12 -17 12 -25 -2z"/>
<path d="M10120 1880 c0 -5 10 -10 23 -10 18 0 19 2 7 10 -19 13 -30 13 -30 0z"/>
<path d="M10240 1881 c0 -19 22 -23 38 -7 15 15 14 16 -11 16 -15 0 -27 -4
-27 -9z"/>
<path d="M14730 1880 c0 -5 9 -10 20 -10 11 0 20 5 20 10 0 6 -9 10 -20 10
-11 0 -20 -4 -20 -10z"/>
<path d="M1440 1865 c0 -9 7 -18 15 -21 8 -4 15 -12 15 -20 0 -8 5 -23 12 -33
17 -28 3 -49 -37 -57 -43 -8 -53 -21 -29 -39 25 -19 58 -19 96 1 20 11 55 16
104 15 74 -1 99 13 47 25 -70 15 -98 31 -101 59 -3 27 -3 27 54 23 68 -4 80
11 29 35 -46 22 -62 21 -75 -3 -16 -30 -75 -27 -96 5 -18 28 -34 33 -34 10z"/>
<path d="M2193 1873 c-22 -8 -14 -23 13 -23 15 0 24 5 22 12 -5 14 -18 18 -35
11z"/>
<path d="M2321 1869 c8 -5 9 -9 3 -9 -7 0 -15 -11 -18 -25 -9 -36 -50 -58
-101 -57 -37 2 -47 -2 -61 -23 -19 -29 -53 -33 -89 -9 -14 9 -32 13 -42 9 -16
-6 -15 -8 7 -25 25 -19 25 -19 7 -49 -21 -35 -16 -37 43 -16 65 23 66 21 43
-40 -2 -6 13 -10 36 -10 27 0 47 -7 64 -23 13 -12 26 -22 29 -22 11 0 75 69
70 75 -3 3 -22 5 -41 5 -42 0 -91 28 -71 40 15 9 188 5 198 -5 4 -4 -5 -17
-20 -30 -30 -26 -21 -45 23 -45 37 0 54 22 37 49 -7 12 -16 21 -20 21 -18 0
-6 21 17 32 14 6 25 17 25 24 0 18 -59 33 -89 22 -38 -14 -49 7 -21 37 19 20
33 25 70 25 34 0 52 5 64 19 30 33 11 41 -86 40 -56 -1 -85 -4 -77 -10z"/>
<path d="M4945 1873 c-12 -2 -26 -13 -33 -23 -11 -18 -9 -20 23 -20 24 0 37 6
45 19 17 33 15 34 -35 24z"/>
<path d="M5965 1870 c3 -5 12 -10 20 -10 8 0 17 5 20 10 4 6 -5 10 -20 10 -15
0 -24 -4 -20 -10z"/>
<path d="M12700 1876 c0 -2 7 -9 15 -16 9 -7 15 -8 15 -2 0 5 -7 12 -15 16 -8
3 -15 4 -15 2z"/>
<path d="M14490 1870 c-12 -8 -12 -10 3 -16 22 -8 50 3 42 16 -8 12 -25 13
-45 0z"/>
<path d="M1885 1860 c-3 -5 1 -10 10 -10 9 0 13 5 10 10 -3 6 -8 10 -10 10 -2
0 -7 -4 -10 -10z"/>
<path d="M5393 1854 c-10 -27 46 -59 61 -36 8 13 -23 52 -40 52 -8 0 -17 -7
-21 -16z"/>
<path d="M7717 1856 c-6 -15 1 -26 15 -26 11 0 10 27 -1 34 -5 3 -11 0 -14 -8z"/>
<path d="M12560 1855 c-15 -19 -6 -31 31 -40 33 -8 58 17 39 40 -16 19 -54 19
-70 0z"/>
<path d="M19470 1851 c0 -13 10 -26 25 -33 13 -6 27 -18 30 -27 3 -9 17 -24
31 -35 l26 -19 -7 24 c-7 21 -38 56 -89 98 -14 12 -16 10 -16 -8z"/>
<path d="M4627 1845 c-9 -8 -17 -20 -19 -26 -3 -10 -12 -10 -38 -1 -27 10 -36
9 -50 -3 -21 -19 -43 -19 -98 0 -29 10 -49 12 -60 6 -15 -8 -13 -11 11 -20 16
-6 43 -22 60 -35 32 -23 49 -24 77 -1 19 15 130 17 189 4 39 -9 48 -7 81 15
l37 25 23 -31 c25 -34 37 -28 42 22 l3 35 -76 -3 c-56 -3 -85 0 -107 12 -39
20 -56 20 -75 1z"/>
<path d="M20034 1849 c-3 -6 -1 -16 5 -22 6 -6 11 -31 11 -56 0 -55 11 -79 28
-59 23 28 24 63 3 82 -12 11 -21 30 -21 43 0 24 -14 31 -26 12z"/>
<path d="M5291 1836 c-9 -10 -8 -15 2 -19 19 -7 41 8 33 22 -10 15 -21 14 -35
-3z"/>
<path d="M11500 1841 c-8 -6 -26 -7 -41 -4 -19 3 -40 -2 -64 -17 -35 -21 -55
-27 -125 -34 -19 -2 -36 -9 -38 -15 -3 -9 6 -10 34 -4 22 4 64 7 94 6 33 -1
61 3 70 11 25 22 47 25 67 11 25 -20 92 -19 100 0 14 37 -57 70 -97 46z"/>
<path d="M12470 1840 c0 -5 9 -10 20 -10 11 0 20 5 20 10 0 6 -9 10 -20 10
-11 0 -20 -4 -20 -10z"/>
<path d="M15222 1838 c3 -7 13 -15 22 -16 12 -3 17 1 14 10 -3 7 -13 15 -22
16 -12 3 -17 -1 -14 -10z"/>
<path d="M4167 1833 c-37 -6 -30 -22 19 -50 l39 -23 18 21 c21 26 22 45 1 53
-16 6 -29 6 -77 -1z"/>
<path d="M5097 1833 c-10 -9 13 -33 33 -33 9 0 25 9 35 20 18 20 17 20 -22 20
-22 0 -43 -3 -46 -7z"/>
<path d="M9724 1799 c8 -41 22 -57 37 -42 13 13 -8 64 -30 71 -11 4 -13 -3 -7
-29z"/>
<path d="M6856 1804 c-9 -8 -16 -25 -16 -38 0 -12 -6 -30 -12 -39 -12 -16 -20
-16 -128 -1 -165 23 -161 24 -173 -9 -5 -16 -5 -32 -1 -37 5 -5 70 -14 144
-20 152 -13 168 -16 154 -30 -5 -5 -59 -10 -119 -11 l-110 -1 -32 -34 c-17
-19 -36 -34 -42 -34 -5 0 -13 16 -17 36 -6 31 -9 35 -28 29 -11 -4 -40 -11
-63 -17 -31 -8 -43 -17 -48 -36 -8 -34 -1 -37 44 -22 42 14 71 5 101 -32 14
-18 17 -18 50 -2 19 9 42 22 50 29 14 12 161 26 302 29 61 1 70 4 100 34 40
37 49 39 66 12 16 -27 36 -25 66 5 28 28 73 42 87 28 7 -7 5 -16 -6 -27 -9 -9
-15 -21 -13 -28 4 -12 98 -39 110 -31 13 7 9 30 -7 43 -8 7 -15 16 -15 21 0
16 32 39 57 39 15 0 23 5 21 13 -5 12 -98 30 -153 29 -16 0 -41 -1 -55 -1 -14
-1 -34 0 -44 1 -12 2 -24 -6 -31 -20 -7 -12 -15 -25 -19 -29 -8 -8 -56 37 -56
53 0 20 -39 36 -89 38 -45 1 -46 2 -43 33 4 37 -10 49 -32 27z m118 -144 c18
-17 -7 -29 -57 -28 -65 1 -70 4 -50 28 14 16 25 18 58 14 22 -4 44 -10 49 -14z"/>
<path d="M19194 1809 c-9 -15 11 -33 30 -26 9 4 13 13 10 22 -7 17 -30 20 -40
4z"/>
<path d="M10617 1803 c-15 -14 -6 -33 16 -33 29 0 51 15 43 29 -8 12 -49 15
-59 4z"/>
<path d="M11692 1801 c-8 -5 -12 -17 -10 -27 5 -29 72 -27 76 2 2 15 -4 23
-20 28 -29 7 -30 7 -46 -3z"/>
<path d="M18330 1800 c-12 -8 -12 -10 3 -16 21 -8 35 2 21 16 -5 5 -15 6 -24
0z"/>
<path d="M11895 1785 c21 -17 70 -17 70 0 0 6 -20 11 -45 13 -42 2 -44 1 -25
-13z"/>
<path d="M12100 1786 c0 -15 24 -28 34 -19 13 14 5 33 -14 33 -11 0 -20 -6
-20 -14z"/>
<path d="M12784 1785 c-6 -14 2 -27 31 -52 32 -28 65 -43 65 -30 0 2 -20 25
-45 52 -38 42 -45 46 -51 30z"/>
<path d="M15560 1780 c0 -15 7 -20 26 -20 20 0 25 4 20 16 -3 9 -6 18 -6 20 0
2 -9 4 -20 4 -13 0 -20 -7 -20 -20z"/>
<path d="M3617 1783 c-4 -3 -7 -21 -7 -39 0 -42 -11 -48 -54 -30 -24 10 -38
11 -42 5 -11 -19 15 -33 67 -35 39 -1 54 -6 65 -23 20 -27 42 -27 46 1 4 31
25 33 83 8 45 -19 47 -21 31 -39 -21 -23 -20 -38 4 -51 23 -12 40 -6 40 15 0
25 29 24 60 -1 42 -36 38 -46 -14 -39 -30 5 -46 3 -51 -5 -11 -18 15 -30 60
-29 22 1 75 -1 119 -5 64 -5 84 -11 108 -31 34 -29 51 -28 57 1 6 35 22 46 61
39 29 -5 40 -2 55 14 10 12 24 21 32 21 7 0 13 5 13 10 0 13 -33 13 -47 -1 -8
-8 -21 -8 -48 1 -41 14 -81 3 -111 -31 -24 -27 -41 -24 -47 11 -7 35 -45 49
-83 31 -29 -13 -64 -15 -64 -3 0 5 11 19 25 32 14 13 25 32 25 42 0 26 48 55
69 40 50 -34 97 -53 120 -49 15 3 35 -1 45 -9 29 -21 53 -17 72 10 20 32 73
45 89 22 7 -9 27 -16 48 -16 20 0 42 -6 49 -13 7 -8 24 -19 37 -26 20 -11 26
-10 47 10 13 12 24 27 24 32 0 17 -34 36 -63 37 -15 0 -39 7 -52 16 -16 10
-34 14 -51 10 -14 -4 -32 -2 -39 4 -8 6 -37 13 -65 15 -28 2 -59 6 -69 10 -10
3 -24 -1 -30 -9 -10 -11 -19 -13 -38 -5 -20 7 -37 6 -65 -6 -47 -18 -58 -19
-58 -2 -1 35 -15 39 -81 22 -41 -11 -79 -14 -107 -10 -28 4 -56 2 -75 -6 -27
-11 -32 -11 -48 10 -14 17 -26 22 -44 19 -16 -3 -30 1 -41 13 -17 19 -45 25
-57 12z m333 -137 c-15 -15 -34 9 -26 31 7 17 8 17 22 -1 9 -13 11 -23 4 -30z"/>
<path d="M5604 1778 c-11 -18 25 -39 48 -27 15 8 17 13 7 25 -14 17 -45 18
-55 2z"/>
<path d="M5993 1783 c-7 -3 -13 -9 -13 -14 0 -12 37 -12 44 0 7 11 -14 20 -31
14z"/>
<path d="M17741 1781 c-11 -7 -9 -11 8 -21 30 -16 58 -6 41 15 -14 17 -29 19
-49 6z"/>
<path d="M1714 1769 c-11 -19 21 -40 66 -42 36 -2 45 1 48 17 2 10 -2 22 -10
27 -19 12 -96 11 -104 -2z"/>
<path d="M1903 1770 c-26 -11 -27 -14 -13 -41 14 -25 66 -26 79 -1 18 33 -23
59 -66 42z"/>
<path d="M6105 1769 c-4 -6 -2 -15 5 -19 15 -10 48 1 50 15 1 14 -47 18 -55 4z"/>
<path d="M15061 1761 c-43 -23 -27 -33 33 -22 52 10 61 15 51 30 -9 16 -45 13
-84 -8z"/>
<path d="M2620 1751 c0 -12 5 -21 10 -21 6 0 10 6 10 14 0 8 -4 18 -10 21 -5
3 -10 -3 -10 -14z"/>
<path d="M5730 1755 c7 -8 16 -12 21 -9 13 8 1 24 -18 24 -13 0 -13 -3 -3 -15z"/>
<path d="M6186 1761 c-3 -4 3 -16 14 -26 16 -15 23 -16 33 -6 9 10 8 15 -7 27
-23 16 -33 18 -40 5z"/>
<path d="M9552 1758 c6 -18 28 -21 28 -4 0 9 -7 16 -16 16 -9 0 -14 -5 -12
-12z"/>
<path d="M16175 1759 c-4 -6 -4 -13 -1 -16 8 -8 36 5 36 17 0 13 -27 13 -35
-1z"/>
<path d="M18490 1762 c0 -5 11 -19 25 -32 27 -25 41 -20 47 15 2 17 -3 21 -34
23 -21 2 -38 -1 -38 -6z"/>
<path d="M3021 1749 c-18 -7 -22 -14 -16 -32 4 -12 9 -37 12 -54 6 -35 26 -43
41 -17 8 14 14 15 45 3 32 -11 39 -11 57 6 17 15 24 16 46 7 35 -17 61 -15 68
4 9 23 -11 44 -41 44 -13 0 -58 11 -99 25 -83 28 -80 27 -113 14z"/>
<path d="M9032 1750 c-27 -11 -44 -50 -30 -67 13 -16 70 -17 86 -1 9 9 18 9
37 0 33 -15 55 -5 55 24 0 17 -8 27 -26 34 -41 16 -97 20 -122 10z"/>
<path d="M18720 1745 c-7 -9 -10 -18 -7 -21 10 -11 37 5 37 21 0 19 -14 19
-30 0z"/>
<path d="M2866 1734 c-33 -18 -26 -30 25 -39 39 -7 66 12 55 40 -7 19 -43 19
-80 -1z"/>
<path d="M5427 1744 c-9 -10 2 -24 19 -24 8 0 14 7 14 15 0 15 -21 21 -33 9z"/>
<path d="M7950 1734 c0 -17 49 -47 66 -40 8 3 14 12 14 21 0 8 5 15 10 15 6 0
10 4 10 9 0 5 -22 8 -50 8 -32 -1 -50 -5 -50 -13z"/>
<path d="M9367 1743 c-13 -12 -7 -23 13 -23 11 0 20 7 20 15 0 15 -21 21 -33
8z"/>
<path d="M11070 1737 c-14 -6 -30 -18 -36 -26 -8 -10 -22 -12 -51 -8 -30 5
-44 3 -53 -8 -19 -23 3 -42 64 -55 52 -11 54 -10 85 19 26 24 37 29 51 21 10
-6 33 -10 51 -10 21 0 39 -8 55 -25 28 -30 35 -31 65 -5 21 17 22 21 9 30 -8
5 -28 10 -45 10 -16 0 -61 16 -99 35 -39 19 -70 35 -70 34 -1 0 -12 -6 -26
-12z"/>
<path d="M11984 1738 c-8 -12 30 -48 51 -48 25 0 35 -25 19 -48 -11 -16 -25
-22 -54 -22 -33 0 -41 5 -59 36 -22 37 -47 38 -37 0 4 -15 -5 -31 -31 -58 -23
-23 -33 -42 -30 -52 8 -20 41 -21 57 -1 20 24 50 28 70 10 18 -17 21 -16 57 5
l37 22 28 -31 c23 -26 35 -31 73 -31 48 0 53 -4 31 -26 -19 -18 -36 -18 -64 2
-12 8 -28 12 -35 7 -6 -4 -48 -8 -92 -9 -44 -1 -99 -4 -122 -8 -38 -7 -45 -5
-66 18 -30 32 -40 33 -57 1 -15 -28 -27 -31 -54 -10 -25 19 -80 19 -95 1 -10
-12 -8 -17 11 -27 24 -13 179 -32 240 -30 27 1 40 -4 48 -18 16 -31 14 -32
-52 -30 -35 0 -107 -1 -162 -4 -95 -4 -107 -8 -119 -42 -2 -6 -20 -3 -43 7
-64 27 -94 30 -120 13 -22 -14 -25 -14 -44 5 -13 13 -25 17 -33 13 -7 -5 -29
-19 -49 -32 -44 -27 -48 -48 -12 -61 34 -13 150 -13 175 0 14 8 25 7 41 -4 29
-18 177 -13 267 9 35 8 71 13 81 10 9 -3 61 -7 116 -9 80 -2 101 0 110 12 10
14 14 14 37 -1 30 -19 63 -22 72 -7 4 6 21 8 41 4 19 -3 40 -2 47 4 15 12 302
8 412 -6 66 -9 81 -8 88 4 11 20 40 18 68 -5 22 -17 26 -18 52 -4 25 13 31 13
52 -1 31 -20 55 -20 55 -1 0 24 22 27 68 11 31 -11 50 -13 69 -5 22 8 32 6 53
-10 24 -17 60 -25 97 -22 6 1 13 11 15 24 4 26 46 35 166 36 l72 1 0 -30 c0
-23 5 -30 19 -30 21 0 44 23 33 34 -4 4 2 14 12 22 14 10 35 12 72 8 95 -12
133 17 84 61 -27 24 -25 31 10 39 39 7 39 33 0 68 -20 17 -28 32 -24 43 4 10
-1 22 -15 31 -12 9 -21 26 -21 40 0 21 -5 24 -33 24 -18 0 -42 -7 -53 -15 -21
-17 -26 -9 49 -70 19 -16 22 -40 7 -50 -6 -4 -31 1 -56 11 -42 16 -46 16 -61
1 -15 -15 -15 -18 0 -35 23 -25 21 -37 -8 -50 -26 -12 -32 -26 -15 -37 6 -3
10 -13 10 -21 0 -8 -4 -14 -10 -14 -5 0 -10 7 -10 15 0 8 -6 15 -14 15 -26 0
-26 17 -1 55 25 37 25 55 0 55 -7 0 -20 7 -28 15 -13 12 -16 12 -20 -7 -5 -17
-11 -19 -34 -14 -77 19 -81 19 -98 -8 -18 -28 -44 -33 -62 -15 -7 7 -46 13
-88 15 -47 2 -84 9 -97 19 -26 17 -89 20 -105 4 -8 -8 -22 -8 -49 0 -75 21
-129 6 -71 -20 37 -16 92 -60 92 -72 0 -22 -46 -19 -71 4 -21 19 -28 21 -42
11 -25 -18 -63 -33 -98 -39 -23 -4 -38 1 -61 21 -17 14 -35 26 -39 26 -23 1
-75 61 -98 113 -31 71 -56 76 -86 17 l-21 -40 31 -6 c33 -7 37 -19 15 -48 -8
-11 -15 -30 -15 -43 0 -12 -8 -26 -17 -31 -10 -5 -77 -10 -149 -10 -113 -2
-138 1 -178 19 -25 11 -46 24 -46 28 0 17 30 20 64 6 46 -19 76 -19 105 1 16
12 34 14 61 10 33 -5 41 -3 54 16 23 32 21 35 -25 42 -27 4 -52 17 -72 37 -27
28 -33 29 -54 18 -21 -11 -26 -9 -53 16 -19 18 -37 51 -46 82 -9 29 -22 60
-30 68 -18 18 -80 20 -90 3z m1216 -288 c0 -3 16 -23 35 -45 19 -22 35 -43 35
-47 0 -14 -30 -8 -48 10 -13 13 -36 18 -98 19 -126 4 -173 33 -94 59 34 11
170 15 170 4z m-626 -16 c23 -9 20 -44 -3 -44 -33 0 -51 11 -51 31 0 19 23 25
54 13z m1076 -9 c7 -9 10 -18 8 -21 -10 -10 -58 8 -58 22 0 19 34 18 50 -1z
m-1652 -32 c-2 -11 -14 -19 -31 -21 -33 -4 -36 11 -4 26 32 15 39 14 35 -5z"/>
<path d="M16302 1734 c-32 -22 -29 -46 6 -42 21 2 28 9 30 31 4 31 -4 34 -36
11z"/>
<path d="M2506 1732 c-3 -5 0 -17 7 -26 15 -21 49 -11 45 13 -3 18 -43 28 -52
13z"/>
<path d="M2754 1729 c-6 -10 11 -29 26 -29 3 0 11 4 19 9 17 11 5 31 -19 31
-10 0 -22 -5 -26 -11z"/>
<path d="M5294 1725 c-24 -17 -7 -38 27 -33 29 4 35 24 11 37 -14 7 -24 6 -38
-4z"/>
<path d="M7660 1724 c0 -8 5 -12 10 -9 6 4 8 11 5 16 -9 14 -15 11 -15 -7z"/>
<path d="M13600 1730 c0 -5 5 -10 10 -10 6 0 10 5 10 10 0 6 -4 10 -10 10 -5
0 -10 -4 -10 -10z"/>
<path d="M15620 1720 c0 -18 5 -21 33 -18 20 2 32 8 32 18 0 10 -12 16 -32 18
-28 3 -33 0 -33 -18z"/>
<path d="M18085 1720 c-11 -13 -31 -20 -52 -20 l-34 0 18 -25 c21 -29 41 -31
81 -8 27 15 37 16 77 5 48 -13 125 -6 125 11 0 5 -13 7 -30 4 -21 -5 -44 2
-86 23 -66 35 -75 36 -99 10z"/>
<path d="M19951 1724 c0 -11 3 -14 6 -6 3 7 2 16 -1 19 -3 4 -6 -2 -5 -13z"/>
<path d="M9798 1719 c-19 -11 -44 -50 -31 -48 27 5 43 -5 62 -36 11 -19 28
-35 37 -35 9 0 28 -7 43 -16 26 -16 32 -15 122 16 69 24 101 41 121 64 14 17
24 34 22 38 -3 5 -26 8 -50 8 -45 0 -46 0 -39 -30 6 -26 4 -30 -15 -30 -11 0
-34 7 -51 15 -21 12 -34 13 -48 5 -42 -22 -108 -2 -113 34 -3 24 -34 31 -60
15z"/>
<path d="M5040 1695 c0 -29 15 -33 29 -6 11 20 5 31 -16 31 -7 0 -13 -11 -13
-25z"/>
<path d="M5924 1696 c-13 -29 -60 -34 -67 -7 -7 28 -31 26 -45 -3 -8 -19 -20
-26 -48 -28 -53 -4 -53 -22 0 -47 42 -21 46 -21 70 -6 22 15 27 15 55 1 38
-20 67 -20 75 -1 7 19 25 19 32 1 3 -7 -8 -27 -25 -43 -36 -36 -32 -67 9 -88
32 -17 43 -10 28 15 -9 14 -9 22 1 34 20 24 45 19 69 -14 17 -22 31 -30 53
-30 29 0 30 1 27 42 -3 37 -6 42 -38 53 -24 8 -36 19 -38 33 -4 25 13 28 65
13 42 -12 75 8 53 34 -30 37 -110 59 -125 35 -15 -25 -43 -30 -66 -12 -13 10
-36 23 -50 29 -22 9 -26 8 -35 -11z"/>
<path d="M8109 1701 c-20 -16 -21 -21 -10 -35 19 -23 38 -20 57 9 28 43 -4 61
-47 26z"/>
<path d="M9666 1699 c-49 -39 -26 -73 30 -43 38 21 43 38 15 53 -14 8 -25 6
-45 -10z"/>
<path d="M17375 1708 c-22 -13 -18 -24 14 -37 15 -7 33 -23 39 -36 13 -29 37
-24 65 12 14 18 28 23 63 23 64 0 84 -13 84 -55 0 -29 4 -35 21 -35 16 0 19 4
14 20 -9 29 12 50 48 50 49 0 128 27 130 45 2 19 -32 16 -54 -6 -21 -21 -23
-21 -55 -5 -21 9 -45 13 -64 10 -18 -4 -36 -1 -45 6 -17 14 -236 21 -260 8z"/>
<path d="M6273 1693 c-8 -19 50 -73 79 -73 16 0 38 27 38 48 0 13 -62 42 -89
42 -12 0 -25 -8 -28 -17z"/>
<path d="M10745 1701 c-6 -11 9 -23 19 -14 9 9 7 23 -3 23 -6 0 -12 -4 -16 -9z"/>
<path d="M12312 1702 c-13 -2 -21 -9 -19 -15 5 -16 42 -21 63 -9 16 9 16 10
-2 19 -10 5 -29 7 -42 5z"/>
<path d="M10830 1690 c0 -5 7 -10 15 -10 8 0 15 5 15 10 0 6 -7 10 -15 10 -8
0 -15 -4 -15 -10z"/>
<path d="M16182 1690 c7 -23 36 -36 50 -22 14 14 11 18 -26 28 -21 5 -28 4
-24 -6z"/>
<path d="M19635 1690 c-8 -14 11 -37 36 -45 14 -5 19 -16 19 -39 0 -27 5 -35
33 -47 37 -16 47 -51 22 -79 -9 -10 -15 -29 -13 -42 2 -18 8 -22 28 -20 14 2
30 10 37 19 10 13 14 13 35 -1 57 -40 65 0 11 55 -53 53 -70 74 -77 97 -4 11
-22 27 -41 36 -18 9 -37 26 -41 39 -10 33 -36 47 -49 27z"/>
<path d="M12522 1678 c6 -18 28 -21 28 -4 0 9 -7 16 -16 16 -9 0 -14 -5 -12
-12z"/>
<path d="M12647 1663 c-4 -21 1 -35 19 -54 13 -14 24 -36 24 -50 0 -14 5 -30
11 -36 9 -9 9 -20 -1 -43 -16 -38 -3 -52 45 -48 38 4 46 39 17 71 -28 31 -42
62 -42 91 0 29 18 34 53 12 31 -19 207 -10 207 11 0 19 -27 28 -53 15 -46 -22
-59 -22 -90 0 -25 18 -46 23 -90 23 -44 0 -62 4 -71 18 -18 23 -23 22 -29 -10z"/>
<path d="M14817 1669 c-16 -22 -15 -23 41 -42 42 -14 69 -17 102 -12 25 4 93
7 153 7 59 0 107 3 107 6 0 17 -61 32 -129 33 -75 0 -181 11 -232 24 -21 5
-30 2 -42 -16z"/>
<path d="M2810 1661 c0 -12 6 -21 16 -21 9 0 14 7 12 17 -5 25 -28 28 -28 4z"/>
<path d="M4650 1675 c0 -12 82 -55 104 -55 37 0 40 27 6 45 -27 14 -110 21
-110 10z"/>
<path d="M4910 1670 c0 -5 9 -10 20 -10 11 0 20 5 20 10 0 6 -9 10 -20 10 -11
0 -20 -4 -20 -10z"/>
<path d="M10315 1665 c-20 -15 -20 -15 8 -40 42 -37 59 -33 55 13 -3 42 -29
54 -63 27z"/>
<path d="M16613 1665 c-3 -9 -2 -19 1 -23 8 -8 38 10 44 26 6 18 -38 14 -45
-3z"/>
<path d="M16765 1671 c-6 -11 9 -23 19 -14 9 9 7 23 -3 23 -6 0 -12 -4 -16 -9z"/>
<path d="M2687 1664 c-14 -15 -6 -34 14 -34 14 0 19 5 17 17 -3 18 -20 27 -31
17z"/>
<path d="M9536 1661 c-7 -11 -1 -90 7 -98 11 -11 37 6 37 25 0 18 -27 82 -35
82 -2 0 -6 -4 -9 -9z"/>
<path d="M11415 1662 c-29 -4 -29 -5 15 -18 44 -13 69 -7 56 15 -7 11 -17 12
-71 3z"/>
<path d="M11797 1663 c-9 -9 12 -33 29 -33 19 0 18 26 -2 34 -19 7 -19 7 -27
-1z"/>
<path d="M20047 1657 c-3 -7 -2 -19 3 -26 5 -10 8 -9 13 2 3 7 2 19 -3 26 -5
10 -8 9 -13 -2z"/>
<path d="M5133 1648 c-18 -26 -36 -68 -31 -74 4 -3 18 2 33 12 21 13 31 15 50
6 15 -7 26 -8 30 -2 4 6 -1 10 -9 10 -9 0 -22 14 -31 30 -17 33 -27 37 -42 18z"/>
<path d="M10200 1645 c-7 -8 -20 -15 -29 -15 -16 0 -41 -59 -41 -98 0 -10 -11
-29 -25 -42 -39 -36 -33 -54 14 -46 58 9 114 29 118 43 2 6 -12 29 -31 51 -52
57 -46 75 22 64 27 -4 32 -1 32 15 0 38 -37 56 -60 28z"/>
<path d="M13438 1649 c-10 -5 -18 -17 -18 -26 0 -13 8 -14 40 -9 24 4 47 2 59
-5 21 -14 55 -5 49 14 -3 6 -22 15 -44 18 -21 3 -46 9 -54 12 -8 4 -23 2 -32
-4z"/>
<path d="M1916 1641 c-7 -11 18 -33 27 -24 4 3 7 12 7 20 0 15 -26 18 -34 4z"/>
<path d="M2600 1640 c0 -5 5 -10 11 -10 5 0 7 5 4 10 -3 6 -8 10 -11 10 -2 0
-4 -4 -4 -10z"/>
<path d="M9358 1642 c-10 -2 -18 -8 -18 -13 0 -17 31 -22 47 -7 12 12 12 16 1
20 -7 2 -21 3 -30 0z"/>
<path d="M14648 1643 c-44 -5 -50 -24 -16 -47 34 -24 75 -20 94 9 8 13 13 29
9 35 -6 10 -15 10 -87 3z"/>
<path d="M18505 1640 c-3 -6 1 -13 10 -16 19 -8 30 0 20 15 -8 14 -22 14 -30
1z"/>
<path d="M18664 1639 c-9 -15 12 -33 30 -26 9 4 16 13 16 22 0 17 -35 21 -46
4z"/>
<path d="M3535 1626 c-20 -15 -15 -43 10 -52 18 -7 70 36 58 47 -18 15 -50 18
-68 5z"/>
<path d="M13827 1634 c-14 -14 -6 -24 19 -24 16 0 24 5 22 13 -5 14 -31 21
-41 11z"/>
<path d="M2918 1608 c-2 -14 -15 -29 -35 -38 -54 -25 -40 -37 50 -43 70 -4 85
-2 101 13 11 11 16 25 12 35 -5 15 -8 15 -36 -2 -37 -21 -63 -10 -68 31 -4 32
-19 34 -24 4z"/>
<path d="M3134 1605 c-8 -30 0 -53 21 -61 39 -15 63 56 26 76 -30 15 -40 12
-47 -15z"/>
<path d="M3702 1618 c5 -15 28 -18 29 -3 0 6 -7 12 -17 13 -10 3 -15 -1 -12
-10z"/>
<path d="M13312 1617 c-14 -16 -6 -27 20 -27 13 0 18 6 16 17 -4 22 -22 27
-36 10z"/>
<path d="M14505 1620 c-11 -4 -30 -6 -42 -3 -26 6 -63 -13 -63 -32 0 -23 17
-26 49 -8 29 17 31 17 51 -5 25 -27 63 -26 68 1 2 10 -4 27 -14 38 -19 21 -20
21 -49 9z"/>
<path d="M17750 1610 c0 -13 12 -25 36 -35 46 -19 75 -19 100 0 16 13 17 16 4
25 -8 6 -31 8 -51 6 -23 -4 -42 0 -55 9 -26 20 -34 19 -34 -5z"/>
<path d="M3256 1604 c-10 -26 3 -34 55 -34 41 0 49 3 49 19 0 22 -19 31 -65
31 -21 0 -35 -6 -39 -16z"/>
<path d="M3427 1613 c-4 -3 -7 -12 -7 -20 0 -17 26 -17 33 1 8 21 -11 35 -26
19z"/>
<path d="M4992 1608 c-30 -30 6 -76 48 -63 26 8 25 26 0 53 -24 25 -31 27 -48
10z"/>
<path d="M7382 1590 c-15 -25 -15 -55 1 -68 16 -14 67 -10 67 5 0 7 11 15 25
19 35 9 51 30 35 49 -11 14 -15 14 -38 -1 -23 -15 -26 -15 -34 0 -12 22 -41
20 -56 -4z"/>
<path d="M13169 1594 c-10 -13 -10 -17 2 -25 28 -18 66 -1 56 25 -8 20 -41 21
-58 0z"/>
<path d="M14084 1599 c-8 -13 15 -30 36 -26 8 1 16 10 18 20 3 12 -3 17 -22
17 -14 0 -28 -5 -32 -11z"/>
<path d="M18783 1598 c2 -7 10 -13 17 -13 7 0 15 6 18 13 2 7 -5 12 -18 12
-13 0 -20 -5 -17 -12z"/>
<path d="M9432 1569 c-20 -25 -21 -29 -6 -29 18 0 43 27 44 48 0 20 -13 13
-38 -19z"/>
<path d="M15540 1580 c-9 -17 -7 -22 15 -30 15 -6 38 -10 53 -10 l26 0 -29 30
c-34 35 -50 38 -65 10z"/>
<path d="M18580 1590 c0 -5 5 -10 10 -10 6 0 10 5 10 10 0 6 -4 10 -10 10 -5
0 -10 -4 -10 -10z"/>
<path d="M4403 1578 c-54 -18 -38 -68 21 -68 33 0 131 -43 143 -64 10 -17 49
-37 57 -29 3 3 6 19 6 34 0 23 -9 33 -42 53 -24 13 -55 28 -70 31 -15 4 -34
18 -43 31 -17 26 -24 27 -72 12z"/>
<path d="M9047 1583 c-14 -13 -6 -23 18 -23 16 0 25 6 25 15 0 15 -31 21 -43
8z"/>
<path d="M15789 1574 c-18 -21 1 -49 32 -49 19 0 24 5 24 24 0 30 -38 47 -56
25z"/>
<path d="M16227 1579 c-12 -7 -40 -8 -73 -4 -71 9 -81 1 -49 -37 15 -18 22
-35 17 -40 -22 -22 -81 -44 -99 -37 -24 9 -48 -4 -38 -21 4 -7 19 -10 36 -6
24 5 29 2 29 -14 0 -23 -13 -27 -138 -35 -90 -6 -93 -5 -116 20 -13 14 -29 25
-36 25 -7 0 -27 9 -44 19 -27 17 -57 20 -221 24 -105 2 -203 10 -218 16 -35
14 -30 15 -60 -13 -17 -16 -33 -22 -47 -19 -22 6 -29 -15 -7 -22 11 -4 281
-15 447 -19 69 -2 94 -11 150 -58 19 -16 46 -38 58 -49 30 -25 53 -24 76 2 12
15 24 19 39 14 39 -13 646 -15 653 -3 10 16 -22 36 -51 30 -14 -2 -36 3 -51
13 -23 15 -33 16 -66 5 -31 -9 -51 -9 -91 1 -59 15 -77 25 -77 46 0 13 10 14
58 8 31 -5 101 -9 154 -9 76 -2 101 -5 116 -19 21 -19 57 -23 67 -6 5 7 12 6
23 -4 12 -10 48 -15 123 -16 104 -1 107 -1 123 24 10 15 26 25 40 25 30 0 48
-21 36 -40 -16 -24 -11 -40 10 -40 12 0 32 -7 45 -16 25 -16 55 -13 55 5 0 6
-11 16 -25 24 l-26 13 24 22 c24 22 25 22 55 5 29 -17 33 -17 86 1 30 10 61
16 69 13 7 -3 20 -1 28 3 10 7 8 11 -11 19 -14 6 -33 16 -42 23 -14 10 -21 8
-42 -11 -21 -20 -29 -22 -58 -13 -18 6 -48 10 -66 10 -44 1 -94 12 -110 24 -8
8 -26 5 -58 -7 -37 -14 -62 -16 -124 -11 -62 6 -85 4 -109 -8 -20 -11 -37 -13
-53 -7 -13 4 -43 9 -66 9 -54 2 -62 7 -62 36 0 22 5 24 91 31 84 6 91 8 100
31 18 49 13 51 -114 28 -26 -4 -44 -2 -62 10 -29 19 -56 21 -73 4 -9 -9 -21
-9 -50 0 -49 15 -151 15 -175 1z m263 -55 c0 -29 -32 -43 -96 -44 -44 0 -63 4
-67 14 -8 21 2 26 47 26 23 0 48 5 56 10 24 16 60 12 60 -6z m-216 -12 c9 -14
-43 -82 -63 -82 -10 0 -24 12 -32 28 -7 15 -15 30 -17 34 -8 16 102 35 112 20z
m-74 -105 c0 -35 -66 -51 -90 -22 -13 16 -8 20 40 28 45 8 50 7 50 -6z"/>
<path d="M10462 1551 c-19 -17 -32 -36 -30 -46 4 -19 3 -19 48 -10 53 10 90
-8 90 -44 0 -26 5 -31 49 -46 44 -14 53 -15 73 -2 13 8 43 18 68 22 25 4 55
17 68 28 20 18 34 21 90 20 37 -2 79 2 95 8 20 8 31 8 40 0 9 -7 57 -9 143 -7
71 2 136 0 146 -5 9 -5 54 -9 101 -10 110 -1 160 23 102 49 -19 9 -33 8 -63
-2 -32 -12 -44 -12 -78 0 -51 18 -80 18 -88 -1 -7 -20 -111 -20 -146 0 -14 8
-43 14 -64 15 -22 0 -47 7 -58 17 -37 33 -213 15 -245 -26 -12 -15 -14 -14
-27 2 -7 9 -40 28 -71 41 -52 21 -62 22 -89 11 -32 -13 -82 -10 -92 6 -9 15
-28 9 -62 -20z m229 -57 c10 -13 10 -17 -2 -25 -8 -5 -21 -9 -29 -9 -8 0 -21
4 -29 9 -12 8 -12 12 -2 25 8 9 21 16 31 16 10 0 23 -7 31 -16z"/>
<path d="M15286 1571 c-4 -6 -1 -13 6 -15 7 -2 27 -8 43 -14 17 -5 39 -6 50
-1 11 4 32 8 48 8 51 2 27 18 -25 17 -29 0 -67 3 -84 8 -21 5 -34 4 -38 -3z"/>
<path d="M15659 1564 c-10 -13 -10 -17 2 -25 23 -15 58 -22 76 -14 16 6 15 9
-10 31 -33 28 -49 30 -68 8z"/>
<path d="M19300 1560 c0 -22 43 -55 60 -45 17 10 11 33 -12 49 -30 22 -48 20
-48 -4z"/>
<path d="M2750 1555 c0 -8 5 -15 10 -15 6 0 10 7 10 15 0 8 -4 15 -10 15 -5 0
-10 -7 -10 -15z"/>
<path d="M10267 1557 c-7 -19 4 -33 31 -41 30 -10 43 21 17 40 -24 18 -41 18
-48 1z"/>
<path d="M15975 1560 c-10 -16 4 -30 31 -30 26 0 31 9 12 28 -15 15 -35 16
-43 2z"/>
<path d="M16830 1564 c0 -5 11 -22 23 -38 22 -27 25 -28 53 -15 16 8 30 22 32
32 3 13 -4 17 -30 17 -18 0 -43 3 -55 6 -13 4 -23 2 -23 -2z"/>
<path d="M18390 1562 c0 -15 27 -22 82 -22 35 0 48 4 46 13 -5 14 -128 23
-128 9z"/>
<path d="M19437 1563 c-4 -3 -7 -15 -7 -25 0 -12 7 -18 24 -18 26 0 51 24 41
40 -7 11 -48 14 -58 3z"/>
<path d="M2144 1547 c-10 -6 -47 -11 -81 -11 -70 -1 -94 -15 -72 -42 25 -31
184 3 196 42 6 17 -20 24 -43 11z"/>
<path d="M3454 1551 c-23 -24 36 -53 115 -57 59 -3 73 0 96 18 16 13 23 24 17
30 -9 9 -219 17 -228 9z"/>
<path d="M4661 1546 c-7 -8 -10 -24 -6 -36 5 -15 15 -20 44 -20 46 0 81 30 57
49 -24 20 -80 25 -95 7z"/>
<path d="M7013 1544 c-57 -24 -41 -40 40 -41 91 -2 126 20 72 45 -33 15 -72
14 -112 -4z"/>
<path d="M14740 1545 c-17 -20 3 -45 37 -45 21 0 24 4 21 28 -4 32 -37 42 -58
17z"/>
<path d="M15063 1543 c2 -10 8 -26 12 -35 5 -13 0 -19 -19 -24 -39 -9 -33 -28
7 -19 17 4 39 8 48 8 21 2 20 64 -1 77 -26 17 -53 12 -47 -7z"/>
<path d="M3340 1541 c0 -6 4 -12 9 -15 13 -8 42 4 35 15 -7 12 -44 12 -44 0z"/>
<path d="M10025 1540 c-8 -13 3 -50 15 -50 13 0 28 32 23 48 -6 15 -29 16 -38
2z"/>
<path d="M4808 1532 c-22 -4 -23 -16 -2 -37 22 -21 59 -16 59 9 0 20 -29 35
-57 28z"/>
<path d="M7530 1510 c-43 -43 -7 -70 41 -31 20 16 21 21 10 35 -18 21 -27 20
-51 -4z"/>
<path d="M14604 1500 c-5 -21 -12 -30 -25 -30 -11 0 -19 -4 -19 -10 0 -13 37
-13 45 0 4 6 21 2 46 -10 30 -16 44 -18 59 -10 28 15 25 27 -12 50 -18 10 -38
24 -45 29 -23 20 -43 12 -49 -19z"/>
<path d="M20040 1520 c0 -5 5 -10 10 -10 6 0 10 5 10 10 0 6 -4 10 -10 10 -5
0 -10 -4 -10 -10z"/>
<path d="M5106 1506 c-48 -14 -55 -28 -21 -46 21 -11 29 -11 49 0 20 10 31 10
56 0 27 -11 33 -10 50 5 24 21 10 46 -20 38 -11 -3 -32 -1 -47 4 -19 7 -41 6
-67 -1z"/>
<path d="M8870 1510 c0 -5 7 -10 15 -10 8 0 15 5 15 10 0 6 -7 10 -15 10 -8 0
-15 -4 -15 -10z"/>
<path d="M9227 1513 c-16 -16 -5 -33 21 -33 34 0 43 7 35 26 -5 14 -44 19 -56
7z"/>
<path d="M9350 1505 c0 -8 5 -15 10 -15 6 0 10 7 10 15 0 8 -4 15 -10 15 -5 0
-10 -7 -10 -15z"/>
<path d="M13810 1505 c-10 -12 -10 -19 -2 -27 17 -17 15 -38 -3 -38 -19 0 -19
-11 -1 -36 14 -18 16 -18 48 -1 19 10 41 15 50 12 10 -4 30 1 47 11 29 17 30
17 61 -9 35 -30 62 -34 79 -13 8 10 24 12 51 9 27 -4 47 0 65 11 19 13 30 14
45 6 23 -12 24 -15 10 -39 -7 -13 -27 -21 -67 -26 -88 -11 -113 -45 -33 -45
31 0 43 -5 56 -25 12 -18 25 -25 50 -25 33 0 59 20 36 28 -35 11 -57 62 -28
62 8 0 28 12 45 26 31 26 51 25 51 -2 0 -10 13 -14 49 -14 58 0 68 9 41 38
-11 12 -20 25 -20 30 0 11 -45 32 -68 32 -10 0 -23 -5 -29 -11 -9 -9 -23 -9
-55 0 -24 6 -56 11 -73 10 -16 0 -97 1 -179 4 -135 5 -149 7 -163 26 -17 25
-45 27 -63 6z"/>
<path d="M8575 1500 c3 -5 8 -10 11 -10 2 0 4 5 4 10 0 6 -5 10 -11 10 -5 0
-7 -4 -4 -10z"/>
<path d="M17536 1489 c-8 -12 -28 -30 -45 -40 -26 -15 -30 -23 -25 -47 8 -40
-16 -59 -55 -42 -17 6 -35 9 -40 5 -16 -9 -14 -78 3 -100 15 -21 46 -14 46 10
0 19 16 20 24 0 7 -20 36 -19 65 1 18 13 36 15 84 10 41 -4 65 -2 75 6 8 7 33
20 55 28 75 28 73 74 -5 87 -22 3 -42 12 -45 19 -7 20 -30 17 -45 -4 -33 -47
-88 -48 -88 -3 0 19 10 34 30 49 17 13 30 27 30 32 0 19 -49 10 -64 -11z"/>
<path d="M17967 1503 c-16 -15 -6 -34 15 -31 29 4 38 38 10 38 -10 0 -22 -3
-25 -7z"/>
<path d="M20252 1490 c0 -14 2 -19 5 -12 2 6 2 18 0 25 -3 6 -5 1 -5 -13z"/>
<path d="M2391 1481 c-8 -14 -5 -23 14 -41 27 -25 45 -20 45 14 0 42 -41 62
-59 27z"/>
<path d="M9152 1483 c2 -10 10 -18 18 -18 22 0 18 29 -3 33 -14 3 -18 -1 -15
-15z"/>
<path d="M14807 1494 c-23 -24 1 -54 43 -54 10 0 27 -15 39 -35 11 -19 24 -35
28 -35 4 1 21 21 36 45 16 25 33 45 38 45 5 0 9 7 9 15 0 13 -13 15 -67 14
-38 -1 -79 2 -93 5 -14 4 -29 4 -33 0z"/>
<path d="M17882 1488 c-19 -19 -14 -28 17 -28 37 0 48 15 22 29 -24 14 -24 14
-39 -1z"/>
<path d="M4267 1475 c-7 -16 8 -29 23 -20 10 6 2 35 -10 35 -4 0 -10 -7 -13
-15z"/>
<path d="M17780 1480 c0 -5 7 -10 15 -10 8 0 15 5 15 10 0 6 -7 10 -15 10 -8
0 -15 -4 -15 -10z"/>
<path d="M4393 1455 c-3 -9 -3 -18 0 -21 9 -10 57 8 57 22 0 19 -49 18 -57 -1z"/>
<path d="M15870 1441 c0 -5 7 -14 15 -21 18 -15 42 1 31 19 -8 13 -46 15 -46
2z"/>
<path d="M17846 1441 c-5 -7 0 -21 10 -32 33 -37 47 -18 16 22 -14 16 -21 19
-26 10z"/>
<path d="M19160 1441 c0 -16 31 -41 51 -41 23 0 26 35 3 44 -24 9 -54 7 -54
-3z"/>
<path d="M1710 1420 c0 -5 6 -10 14 -10 8 0 18 5 21 10 3 6 -3 10 -14 10 -12
0 -21 -4 -21 -10z"/>
<path d="M18362 1413 c-15 -8 -30 -10 -41 -4 -23 13 -133 12 -148 -1 -23 -19
-14 -28 30 -28 23 0 51 -7 61 -15 26 -19 32 -19 56 5 17 17 37 21 140 25 124
4 153 10 129 26 -20 13 -199 6 -227 -8z"/>
<path d="M15165 1409 c-7 -10 21 -38 38 -39 10 0 9 8 -3 31 -12 21 -25 25 -35
8z"/>
<path d="M17974 1399 c-3 -6 -1 -16 5 -22 13 -13 65 8 56 23 -8 13 -52 13 -61
-1z"/>
<path d="M18089 1399 c-10 -6 -11 -11 -2 -20 13 -13 45 -9 50 7 5 15 -31 24
-48 13z"/>
<path d="M19873 1380 c-14 -6 -23 -18 -23 -30 0 -26 33 -39 83 -32 45 5 51 13
36 46 -13 28 -51 34 -96 16z"/>
<path d="M13886 1365 c-15 -8 -34 -15 -42 -15 -7 0 -15 -4 -19 -9 -3 -6 11 -9
34 -8 28 1 50 -6 70 -21 33 -24 56 -27 96 -12 19 7 26 16 23 32 -2 17 -14 24
-58 34 -70 17 -70 17 -104 -1z"/>
<path d="M15282 1349 c-32 -29 -19 -40 46 -39 31 0 77 -2 102 -5 25 -3 56 -5
70 -5 14 0 49 0 78 0 55 -1 67 12 35 36 -21 16 -59 18 -68 4 -10 -16 -81 -12
-95 5 -15 18 -51 20 -68 3 -9 -9 -16 -8 -30 5 -25 22 -44 21 -70 -4z"/>
<path d="M19605 1360 c-11 -18 16 -41 44 -38 40 5 36 42 -6 46 -17 2 -34 -2
-38 -8z"/>
<path d="M962 1348 c-22 -22 -14 -40 16 -36 19 2 27 9 27 23 0 23 -25 31 -43
13z"/>
<path d="M14724 1348 c-3 -5 0 -15 6 -23 6 -8 9 -18 6 -23 -7 -11 93 -3 117
10 10 5 17 17 15 26 -3 14 -16 17 -71 18 -37 1 -70 -3 -73 -8z"/>
<path d="M17176 1351 c-4 -5 -2 -12 3 -15 5 -4 12 -2 15 3 4 5 2 12 -3 15 -5
4 -12 2 -15 -3z"/>
<path d="M14620 1340 c0 -5 5 -10 10 -10 6 0 10 5 10 10 0 6 -4 10 -10 10 -5
0 -10 -4 -10 -10z"/>
<path d="M16623 1337 c-30 -13 -29 -25 1 -39 29 -13 56 -5 56 16 0 23 -31 35
-57 23z"/>
<path d="M19475 1341 c-7 -12 12 -24 25 -16 11 7 4 25 -10 25 -5 0 -11 -4 -15
-9z"/>
<path d="M10886 1331 c-3 -5 1 -12 10 -15 21 -8 56 3 49 15 -8 12 -52 12 -59
0z"/>
<path d="M15013 1333 c-24 -9 -13 -23 16 -23 34 0 49 15 25 24 -18 7 -23 7
-41 -1z"/>
<path d="M15682 1328 c-17 -17 4 -38 39 -38 22 0 29 5 29 19 0 29 -45 42 -68
19z"/>
<path d="M18454 1328 c-7 -11 29 -48 47 -48 20 0 22 33 4 46 -23 17 -41 18
-51 2z"/>
<path d="M11150 1320 c0 -5 5 -10 10 -10 6 0 10 5 10 10 0 6 -4 10 -10 10 -5
0 -10 -4 -10 -10z"/>
<path d="M694 1305 c-4 -8 -1 -22 6 -30 18 -21 50 -19 50 3 0 36 -45 57 -56
27z"/>
<path d="M870 1296 c0 -24 16 -27 35 -6 18 19 17 20 -8 20 -17 0 -27 -5 -27
-14z"/>
<path d="M13683 1303 c-21 -8 -15 -33 9 -42 47 -17 81 16 39 39 -21 11 -29 11
-48 3z"/>
<path d="M1650 1291 c0 -6 5 -13 11 -17 6 -3 9 -14 6 -24 -4 -16 1 -18 39 -17
45 2 57 13 27 24 -10 4 -29 15 -42 25 -26 20 -41 23 -41 9z"/>
<path d="M1858 1273 c-10 -2 -18 -9 -18 -14 0 -11 39 -2 55 12 9 9 -6 10 -37
2z"/>
<path d="M14888 1273 c7 -3 16 -2 19 1 4 3 -2 6 -13 5 -11 0 -14 -3 -6 -6z"/>
<path d="M2034 1255 c-10 -25 6 -35 55 -35 55 0 64 6 50 31 -12 24 -96 27
-105 4z"/>
<path d="M614 1244 c3 -9 6 -18 6 -20 0 -2 5 -4 10 -4 6 0 10 9 10 20 0 12 -7
20 -16 20 -11 0 -14 -5 -10 -16z"/>
<path d="M13022 1243 c2 -10 11 -19 21 -21 24 -5 21 15 -4 28 -18 10 -20 9
-17 -7z"/>
<path d="M12918 1223 c7 -3 16 -2 19 1 4 3 -2 6 -13 5 -11 0 -14 -3 -6 -6z"/>
<path d="M3473 1078 c-49 -16 -40 -28 22 -28 56 0 70 11 36 30 -11 5 -21 10
-23 9 -2 -1 -18 -6 -35 -11z"/>
<path d="M2105 1070 l-30 -6 32 -5 c18 -3 38 -2 44 1 17 11 -11 17 -46 10z"/>
<path d="M2232 1073 c-29 -12 4 -23 69 -23 68 0 91 12 47 24 -27 7 -98 7 -116
-1z"/>
<path d="M2443 1069 c-13 -5 -23 -11 -23 -14 0 -3 44 -5 97 -5 56 0 93 4 88 9
-14 12 -136 20 -162 10z"/>
<path d="M2657 1073 c-15 -14 -6 -23 23 -23 32 0 40 14 14 24 -20 8 -29 8 -37
-1z"/>
<path d="M3806 1072 c-2 -4 11 -9 30 -10 23 -2 33 1 29 8 -7 12 -52 14 -59 2z"/>
<path d="M3615 1060 c3 -5 17 -10 30 -10 13 0 27 5 30 10 4 6 -8 10 -30 10
-22 0 -34 -4 -30 -10z"/>
<path d="M3758 1063 c6 -2 18 -2 25 0 6 3 1 5 -13 5 -14 0 -19 -2 -12 -5z"/>
<path d="M994 2655 c-3 -8 -3 -19 1 -25 9 -14 35 6 35 26 0 19 -29 18 -36 -1z"/>
<path d="M700 2355 c0 -25 -6 -56 -14 -68 -21 -33 -29 -96 -15 -113 20 -24 39
-16 55 24 8 20 21 48 29 63 17 30 7 85 -21 117 -27 32 -34 27 -34 -23z"/>
</g>
</svg>
