<?xml version="1.0" standalone="no"?>
<!DOCTYPE svg PUBLIC "-//W3C//DTD SVG 20010904//EN"
 "http://www.w3.org/TR/2001/REC-SVG-20010904/DTD/svg10.dtd">
<svg version="1.0" xmlns="http://www.w3.org/2000/svg"
 width="518.000000pt" height="519.000000pt" viewBox="0 0 518.000000 519.000000"
 preserveAspectRatio="xMidYMid meet">

<g transform="translate(0.000000,519.000000) scale(0.100000,-0.100000)"
fill="#000000" stroke="none">
<path d="M0 2595 l0 -2595 2590 0 2590 0 0 2595 0 2595 -2590 0 -2590 0 0
-2595z m4857 2280 l23 -5 0 -2276 c0 -1903 -2 -2275 -13 -2265 -8 6 -16 9 -18
6 -6 -5 -309 -7 -1071 -6 -511 1 -588 3 -588 16 0 11 11 14 47 11 26 -2 59 0
75 5 18 5 28 4 28 -3 0 -7 5 -6 14 1 11 9 15 9 19 -1 4 -10 8 -10 16 2 5 8 8
17 6 20 -2 3 23 5 56 5 32 0 59 -3 59 -7 0 -5 -8 -8 -17 -8 -15 0 -16 -2 -3
-10 21 -13 30 -12 27 3 -1 7 7 11 23 9 19 -2 22 0 12 10 -12 12 -27 15 -109
19 -41 2 -54 6 -59 21 -3 10 -10 16 -15 12 -5 -3 -8 -8 -5 -12 2 -4 -6 -16
-17 -27 -11 -11 -17 -14 -13 -7 4 7 2 12 -6 12 -7 0 -44 3 -83 5 -60 5 -67 3
-50 -9 16 -12 13 -13 -33 -13 -29 1 -48 3 -43 6 5 4 3 15 -5 25 -8 11 -15 16
-15 10 -1 -5 -2 -16 -3 -24 -1 -10 -14 -16 -41 -17 -30 -2 -35 0 -20 6 11 5
23 7 28 4 4 -2 7 0 7 6 0 6 -11 13 -25 17 -13 3 -27 15 -30 25 -4 10 -10 19
-15 19 -5 0 -6 -8 -3 -17 5 -12 2 -15 -10 -10 -8 3 -21 -1 -28 -9 -10 -13 -8
-14 19 -9 20 3 32 1 32 -6 0 -7 -18 -9 -55 -5 -34 3 -53 1 -50 -4 4 -6 20 -10
37 -10 55 0 24 -10 -43 -13 -35 -2 -64 -8 -64 -13 0 -5 75 -7 174 -5 143 3
173 1 169 -10 -4 -11 -28 -14 -96 -14 -51 0 -92 -3 -92 -8 0 -4 -8 -4 -17 1
-10 5 -34 8 -53 6 -19 -2 -64 -3 -100 -3 -36 0 -76 -1 -90 -2 -14 -1 -50 -1
-80 -1 -30 0 -134 1 -230 2 -96 0 -192 5 -213 9 -22 6 -39 5 -43 -1 -5 -8 -72
-3 -83 7 -6 7 5 7 322 10 153 1 281 5 284 9 3 3 -3 6 -15 6 -12 0 -22 5 -22
11 0 6 -11 8 -27 5 -62 -13 -226 -16 -239 -5 -9 8 -39 10 -84 7 -38 -3 -67 -2
-65 2 3 4 -22 7 -55 6 -33 -2 -60 2 -60 7 0 5 -6 5 -13 -1 -9 -8 -17 -8 -27 0
-12 8 -12 9 2 4 27 -8 30 10 4 22 -17 8 -30 7 -49 -3 -14 -7 -28 -10 -32 -7
-3 3 -12 -4 -21 -17 -12 -16 -21 -20 -37 -15 -12 4 -25 11 -28 17 -4 5 -16 7
-28 4 -14 -3 -21 0 -21 8 0 19 17 28 22 13 3 -9 10 -7 23 6 18 18 18 18 -23
14 -23 -2 -42 0 -42 4 0 5 -7 8 -15 8 -8 0 -15 6 -15 13 0 7 -5 5 -10 -5 -8
-13 -19 -15 -45 -11 -23 4 -35 2 -35 -6 0 -6 16 -11 37 -11 50 0 37 -10 -16
-12 -27 -1 -46 4 -51 13 -5 7 -12 10 -16 7 -8 -9 18 -36 37 -39 12 -2 49 3
114 16 15 3 21 -1 22 -15 2 -21 -21 -27 -32 -10 -5 8 -11 8 -19 1 -19 -16
-209 -24 -203 -8 2 6 14 11 26 10 23 -3 29 12 9 20 -8 3 -5 6 5 6 10 1 16 5
13 10 -3 4 -25 7 -48 6 -59 -4 -60 -4 -54 -14 7 -11 -18 -33 -27 -24 -4 3 -1
13 6 21 10 13 9 15 -5 9 -9 -3 -18 -2 -20 3 -4 12 -51 -12 -50 -25 1 -5 16
-12 34 -15 46 -7 23 -16 -41 -15 -50 0 -56 2 -62 25 -7 23 -13 11 -10 -17 1
-9 -12 -13 -39 -13 -25 0 -39 -4 -35 -10 4 -6 -2 -7 -18 -1 -14 5 -33 8 -43 7
-11 -2 -23 -1 -29 3 -11 6 -18 7 -90 16 -49 6 -56 -7 -10 -18 11 -3 3 -5 -18
-6 -35 -1 -37 1 -27 19 8 16 8 24 -4 35 -9 10 -17 11 -21 5 -4 -6 -12 -7 -18
-3 -8 4 -7 1 1 -9 7 -9 9 -18 5 -21 -4 -2 -50 -3 -101 -3 -50 1 -92 -1 -92 -4
0 -3 -16 -7 -35 -8 -25 -2 -37 2 -41 13 -6 14 -8 14 -23 1 -10 -9 -30 -13 -56
-10 -32 3 -36 2 -22 -7 10 -6 30 -12 45 -13 15 -2 27 -9 27 -17 0 -17 -83 -25
-98 -10 -7 7 -16 7 -29 0 -26 -14 -32 -6 -18 20 9 18 8 21 -10 21 -12 0 -30 5
-42 11 -18 10 -19 8 -13 -11 5 -15 3 -21 -5 -18 -6 2 -11 7 -11 11 1 4 1 16 1
28 0 16 4 19 18 14 21 -9 159 -19 151 -11 -3 3 -23 8 -45 11 -55 9 -74 15 -74
26 0 5 14 9 32 9 30 0 31 1 12 15 -21 16 -38 20 -30 7 2 -4 -9 -15 -25 -25
-30 -17 -30 -17 -27 6 2 16 9 21 23 19 16 -2 17 -1 5 7 -8 6 -25 8 -37 4 -25
-6 -31 8 -10 26 8 6 15 32 16 58 7 141 7 223 -1 223 -4 0 -9 -4 -9 -10 -1 -5
-2 -14 -3 -19 0 -5 -5 -13 -10 -18 -5 -5 -7 2 -3 15 6 27 -1 54 -13 47 -4 -3
-4 11 0 30 4 19 5 36 2 39 -3 4 2 6 10 6 11 0 14 -8 12 -26 -1 -15 0 -33 3
-40 9 -25 23 -15 23 16 0 35 -30 111 -37 93 -2 -7 -11 -9 -20 -6 -13 5 -11 8
7 18 19 10 20 13 6 24 -13 11 -16 11 -16 0 0 -8 -6 -5 -15 7 -10 16 -12 30 -5
53 5 17 7 31 4 31 -2 0 -7 1 -11 3 -12 3 -11 -117 1 -126 8 -6 8 -10 0 -13 -7
-3 -10 -13 -7 -23 3 -10 0 -22 -6 -25 -7 -5 -11 7 -11 36 -1 76 -9 200 -14
206 -3 3 -10 -6 -15 -19 -11 -26 -13 -21 -15 30 -1 19 -6 36 -12 38 -8 3 -11
-19 -9 -69 3 -88 3 -87 16 -65 5 9 7 22 3 29 -4 7 -3 8 5 4 13 -8 5 -47 -12
-57 -6 -4 -8 -48 -5 -113 4 -96 3 -106 -14 -112 -20 -6 -24 -19 -8 -29 5 -3
10 -12 10 -18 0 -7 -4 -6 -10 3 -15 23 -12 6 4 -25 18 -34 19 -121 2 -225 -7
-45 -9 -83 -4 -86 4 -3 6 -10 3 -15 -18 -28 40 5 73 43 24 26 30 28 54 19 19
-7 28 -7 32 2 2 7 5 8 5 2 0 -5 -4 -17 -10 -25 -8 -11 -12 -12 -16 -2 -2 6
-14 12 -26 12 -16 0 -18 -3 -9 -9 11 -6 10 -10 -5 -16 -10 -5 -21 -7 -25 -7
-5 1 -8 -2 -8 -8 0 -8 40 -6 76 5 6 2 9 -6 6 -20 -3 -16 1 -25 15 -28 10 -3 0
-6 -22 -7 -81 -5 -111 -3 -132 8 -29 16 -31 15 -36 -10 -2 -13 -5 129 -5 315
-1 210 3 335 9 332 5 -4 9 1 9 9 0 8 -4 18 -10 21 -6 4 -10 629 -11 1798 -2
2011 -2 2054 4 2064 6 9 4509 7 4544 -2z m-4470 -3932 c-3 -10 -5 -4 -5 12 0
17 2 24 5 18 2 -7 2 -21 0 -30z m29 -87 c16 -16 19 -40 4 -31 -5 3 -10 1 -10
-4 0 -6 -4 -11 -10 -11 -5 0 -10 14 -10 30 0 34 5 37 26 16z m28 -86 c6 -23 6
-23 -7 -7 -14 17 -32 24 -24 10 3 -5 1 -17 -4 -28 -7 -19 -8 -19 -8 3 -1 26
20 65 30 54 4 -4 10 -18 13 -32z m33 -105 c-1 -40 -6 -64 -12 -62 -9 3 -11 61
-4 114 6 45 17 10 16 -52z m-52 -62 c-3 -32 -17 -53 -34 -53 -14 1 -14 2 2 11
21 12 23 41 2 33 -9 -4 -15 0 -15 9 0 9 8 17 18 20 23 5 30 1 27 -20z m59 -60
c-3 -58 -4 -60 -13 -43 -5 8 -7 26 -6 40 4 31 4 30 13 30 4 0 7 -12 6 -27z
m-97 -75 c-3 -7 -5 -2 -5 12 0 14 2 19 5 13 2 -7 2 -19 0 -25z m30 0 c-3 -8
-6 -5 -6 6 -1 11 2 17 5 13 3 -3 4 -12 1 -19z m78 -8 c-27 -12 -35 -12 -35 0
0 6 12 10 28 9 24 0 25 -1 7 -9z m1108 -46 c-3 -7 -11 -10 -19 -7 -20 8 -17
22 5 20 10 0 17 -7 14 -13z m457 2 c0 -3 -4 -8 -10 -11 -5 -3 -10 -1 -10 4 0
6 5 11 10 11 6 0 10 -2 10 -4z m-475 -26 c8 -13 -5 -13 -25 0 -13 8 -13 10 2
10 9 0 20 -4 23 -10z m1689 -8 c3 -5 -8 -6 -25 -4 -16 2 -29 6 -29 8 0 8 49 4
54 -4z m-1773 -32 c5 0 9 -4 9 -10 0 -6 -133 -9 -375 -8 -262 1 -375 5 -375
12 0 8 105 11 354 10 326 -2 354 -1 348 15 -5 14 -4 14 12 -1 9 -10 22 -18 27
-18z m569 0 c0 -15 -18 -21 -23 -8 -4 10 -7 11 -18 1 -7 -7 -27 -13 -43 -13
-22 0 -27 3 -17 9 8 5 21 6 30 3 13 -5 14 -3 4 9 -10 12 -6 14 28 11 21 -2 39
-8 39 -12z m-119 -7 c-15 -11 -241 -17 -241 -7 0 13 51 19 148 19 86 0 106 -2
93 -12z m-254 1 c-11 -11 -167 -17 -167 -6 0 5 39 10 87 11 48 1 84 -1 80 -5z
m63 -24 c0 -5 -2 -10 -4 -10 -3 0 -8 5 -11 10 -3 6 -1 10 4 10 6 0 11 -4 11
-10z m-982 -7 c-16 -2 -40 -2 -55 0 -16 2 -3 4 27 4 30 0 43 -2 28 -4z m169 1
c-3 -3 -12 -4 -19 -1 -8 3 -5 6 6 6 11 1 17 -2 13 -5z m50 0 c-3 -3 -12 -4
-19 -1 -8 3 -5 6 6 6 11 1 17 -2 13 -5z m400 0 c-3 -3 -12 -4 -19 -1 -8 3 -5
6 6 6 11 1 17 -2 13 -5z m210 -1 c-20 -2 -52 -2 -70 0 -17 2 0 4 38 4 39 0 53
-2 32 -4z"/>
<path d="M1102 4612 c-324 -1 -511 -6 -507 -12 5 -8 17 -2950 16 -3727 l-1
-273 1990 0 1990 0 1 73 c0 39 0 315 0 612 -1 297 -1 1166 -1 1931 l0 1391
-992 2 c-546 1 -1216 3 -1488 4 -272 1 -726 1 -1008 -1z"/>
<path d="M350 1860 c0 -5 5 -10 11 -10 5 0 7 5 4 10 -3 6 -8 10 -11 10 -2 0
-4 -4 -4 -10z"/>
<path d="M360 1716 c0 -9 5 -16 10 -16 6 0 10 4 10 9 0 6 -4 13 -10 16 -5 3
-10 -1 -10 -9z"/>
<path d="M383 1693 c-15 -5 -17 -23 -4 -23 5 0 11 7 15 15 3 8 4 15 3 14 -1 0
-8 -3 -14 -6z"/>
<path d="M370 1638 c0 -4 4 -8 9 -8 6 0 12 4 15 8 3 5 -1 9 -9 9 -8 0 -15 -4
-15 -9z"/>
<path d="M551 1494 c0 -11 3 -14 6 -6 3 7 2 16 -1 19 -3 4 -6 -2 -5 -13z"/>
<path d="M490 1480 c0 -5 5 -10 11 -10 5 0 7 5 4 10 -3 6 -8 10 -11 10 -2 0
-4 -4 -4 -10z"/>
<path d="M4600 1419 c0 -5 5 -7 10 -4 6 3 10 8 10 11 0 2 -4 4 -10 4 -5 0 -10
-5 -10 -11z"/>
<path d="M387 1353 c-4 -7 -4 -21 1 -30 5 -10 7 -24 5 -30 -3 -7 0 -13 6 -13
6 0 11 5 11 11 0 5 4 7 10 4 5 -3 18 -1 27 5 15 9 14 10 -7 4 -22 -6 -23 -5
-12 9 8 9 12 24 9 34 -3 14 -6 12 -11 -9 -5 -16 -12 -28 -16 -28 -5 0 -10 12
-12 28 -2 17 -6 23 -11 15z"/>
<path d="M544 1319 c-3 -6 -2 -15 3 -20 5 -5 9 -1 10 11 2 22 -2 25 -13 9z"/>
<path d="M380 1259 c0 -5 5 -7 10 -4 6 3 10 8 10 11 0 2 -4 4 -10 4 -5 0 -10
-5 -10 -11z"/>
<path d="M350 1215 c0 -25 4 -45 8 -45 5 0 10 20 10 45 1 25 -2 45 -8 45 -5 0
-10 -20 -10 -45z"/>
<path d="M542 1192 c-1 -27 1 -33 8 -22 12 19 13 47 2 54 -5 3 -9 -11 -10 -32z"/>
<path d="M380 1204 c0 -8 5 -12 10 -9 6 4 8 11 5 16 -9 14 -15 11 -15 -7z"/>
<path d="M390 1175 c-9 -10 -9 -15 -1 -15 6 0 11 -9 11 -20 0 -11 4 -20 8 -20
5 0 8 16 8 35 -1 38 -7 43 -26 20z"/>
<path d="M500 1169 c0 -5 5 -7 10 -4 6 3 10 8 10 11 0 2 -4 4 -10 4 -5 0 -10
-5 -10 -11z"/>
<path d="M551 1134 c0 -11 3 -14 6 -6 3 7 2 16 -1 19 -3 4 -6 -2 -5 -13z"/>
<path d="M513 1112 c4 -18 2 -22 -9 -18 -12 5 -12 1 0 -28 10 -25 11 -37 3
-45 -8 -8 -8 -11 0 -11 17 0 25 31 12 46 -8 9 -8 14 -1 14 11 0 6 50 -5 60 -3
3 -3 -5 0 -18z"/>
<path d="M322 1080 c0 -14 2 -19 5 -12 2 6 2 18 0 25 -3 6 -5 1 -5 -13z"/>
<path d="M563 1063 c-16 -6 -17 -29 -1 -39 7 -4 8 -3 4 5 -4 6 -2 18 4 26 13
16 12 16 -7 8z"/>
<path d="M460 1024 c0 -14 3 -15 18 -3 9 7 19 15 21 16 2 2 -5 3 -17 3 -14 0
-22 -6 -22 -16z"/>
<path d="M513 952 c0 -12 5 -22 9 -22 11 0 10 12 -2 30 -7 12 -9 10 -7 -8z"/>
<path d="M550 945 c0 -8 4 -15 10 -15 5 0 7 7 4 15 -4 8 -8 15 -10 15 -2 0 -4
-7 -4 -15z"/>
<path d="M560 911 c0 -6 5 -13 10 -16 6 -3 10 1 10 9 0 9 -4 16 -10 16 -5 0
-10 -4 -10 -9z"/>
<path d="M572 850 c0 -19 2 -27 5 -17 2 9 2 25 0 35 -3 9 -5 1 -5 -18z"/>
<path d="M550 780 c0 -5 4 -10 9 -10 6 0 13 5 16 10 3 6 -1 10 -9 10 -9 0 -16
-4 -16 -10z"/>
<path d="M541 708 c-1 -24 -3 -69 -5 -100 -2 -38 1 -59 8 -60 56 -7 90 3 46
15 -11 3 -20 12 -20 21 0 9 -5 16 -11 16 -5 0 -7 5 -4 10 4 6 10 8 14 6 4 -3
8 8 9 25 0 16 -4 27 -9 24 -5 -4 -9 9 -9 27 0 52 -16 66 -19 16z"/>
<path d="M1376 572 c-37 -8 -12 -19 37 -17 28 2 63 3 76 4 13 1 22 4 19 7 -7
6 -107 11 -132 6z"/>
<path d="M783 555 c4 -12 54 -15 82 -5 14 5 4 9 -33 11 -32 3 -51 0 -49 -6z"/>
<path d="M895 560 c3 -5 11 -10 16 -10 6 0 7 5 4 10 -3 6 -11 10 -16 10 -6 0
-7 -4 -4 -10z"/>
<path d="M940 558 c0 -16 52 -21 66 -6 12 12 9 14 -26 13 -22 0 -40 -3 -40 -7z"/>
<path d="M1072 556 c13 -14 28 -12 28 5 0 5 -9 9 -20 9 -17 0 -19 -2 -8 -14z"/>
<path d="M1303 559 c14 -8 22 -8 30 0 8 8 3 11 -18 11 -26 -1 -28 -2 -12 -11z"/>
<path d="M1950 566 c0 -9 40 -13 46 -5 3 5 -6 9 -20 9 -14 0 -26 -2 -26 -4z"/>
<path d="M626 552 c-3 -4 11 -9 30 -9 18 -1 31 3 28 8 -7 11 -51 12 -58 1z"/>
<path d="M700 549 c0 -5 16 -9 35 -9 46 0 46 14 0 17 -19 1 -35 -3 -35 -8z"/>
<path d="M1613 547 c9 -8 17 -19 17 -26 0 -6 5 -11 11 -11 16 0 -13 43 -32 48
-9 2 -8 -2 4 -11z"/>
<path d="M1805 546 c29 -15 29 -15 -40 -16 -52 -1 -64 -4 -47 -10 29 -12 115
-5 120 9 2 6 8 11 14 11 6 0 8 -7 4 -15 -3 -9 0 -15 9 -15 31 0 6 37 -25 38
-8 0 -26 3 -40 6 -21 5 -21 4 5 -8z"/>
<path d="M2745 550 c3 -5 8 -10 11 -10 2 0 4 5 4 10 0 6 -5 10 -11 10 -5 0 -7
-4 -4 -10z"/>
<path d="M3198 553 c7 -3 16 -2 19 1 4 3 -2 6 -13 5 -11 0 -14 -3 -6 -6z"/>
<path d="M1160 540 c0 -5 5 -10 10 -10 6 0 10 5 10 10 0 6 -4 10 -10 10 -5 0
-10 -4 -10 -10z"/>
<path d="M2258 543 c7 -3 16 -2 19 1 4 3 -2 6 -13 5 -11 0 -14 -3 -6 -6z"/>
<path d="M2404 538 c-7 -11 18 -10 36 2 11 7 10 9 -8 7 -13 -1 -26 -5 -28 -9z"/>
<path d="M2484 542 c-7 -4 18 -8 54 -10 36 -1 64 0 61 2 -9 8 -105 15 -115 8z"/>
<path d="M4660 531 c0 -5 5 -13 10 -16 6 -3 10 -2 10 4 0 5 -4 13 -10 16 -5 3
-10 2 -10 -4z"/>
<path d="M640 519 c0 -5 9 -9 20 -9 11 0 20 2 20 4 0 2 -9 6 -20 9 -11 3 -20
1 -20 -4z"/>
<path d="M1250 520 c0 -5 5 -10 11 -10 5 0 7 5 4 10 -3 6 -8 10 -11 10 -2 0
-4 -4 -4 -10z"/>
<path d="M1290 522 c0 -18 14 -21 50 -12 31 7 32 8 8 9 -14 1 -33 4 -42 7 -9
3 -16 1 -16 -4z"/>
<path d="M1395 520 c-3 -5 -1 -10 4 -10 6 0 11 5 11 10 0 6 -2 10 -4 10 -3 0
-8 -4 -11 -10z"/>
<path d="M2015 520 c-3 -5 -1 -10 4 -10 6 0 11 5 11 10 0 6 -2 10 -4 10 -3 0
-8 -4 -11 -10z"/>
<path d="M555 510 c3 -5 8 -10 11 -10 2 0 4 5 4 10 0 6 -5 10 -11 10 -5 0 -7
-4 -4 -10z"/>
<path d="M710 505 c-11 -13 -10 -14 4 -9 9 3 16 10 16 15 0 13 -6 11 -20 -6z"/>
<path d="M2148 513 c6 -2 12 -11 12 -19 0 -10 8 -12 33 -7 43 8 47 13 9 13
-18 0 -32 5 -32 10 0 6 -8 10 -17 9 -11 0 -13 -3 -5 -6z"/>
<path d="M820 486 c0 -15 3 -16 14 -6 8 6 24 10 35 8 11 -2 20 1 21 7 0 5 -16
10 -35 10 -28 0 -35 -4 -35 -19z"/>
<path d="M915 500 c-4 -6 -4 -14 0 -18 3 -3 10 -1 14 6 6 10 10 10 19 -1 8
-10 27 -13 57 -11 36 3 47 0 55 -17 6 -11 16 -17 22 -13 6 4 18 -2 27 -13 18
-23 81 -36 102 -21 11 7 9 9 -8 5 -13 -3 -25 -1 -28 4 -3 4 -13 5 -23 2 -15
-6 -15 -5 -3 10 7 9 17 15 21 12 14 -9 120 -12 120 -3 0 4 -7 8 -16 8 -8 0
-12 4 -9 10 3 5 23 9 44 8 20 0 45 3 55 9 13 7 3 9 -36 5 -29 -2 -60 -4 -69
-5 -9 -1 -15 -7 -12 -13 3 -8 -2 -11 -16 -7 -12 3 -21 9 -21 14 0 5 -5 9 -11
9 -5 0 -7 -4 -4 -10 7 -11 -1 -13 -64 -10 -24 1 -54 8 -65 15 -12 7 -43 16
-70 20 -27 4 -54 9 -61 11 -7 3 -16 0 -20 -6z"/>
<path d="M2098 503 c6 -2 18 -2 25 0 6 3 1 5 -13 5 -14 0 -19 -2 -12 -5z"/>
<path d="M2506 499 c4 -8 -1 -9 -17 -4 -21 7 -22 6 -10 -9 14 -16 42 -21 54
-9 8 7 -11 33 -25 33 -5 0 -6 -5 -2 -11z"/>
<path d="M2948 503 c7 -3 16 -2 19 1 4 3 -2 6 -13 5 -11 0 -14 -3 -6 -6z"/>
<path d="M1668 493 c7 -3 16 -2 19 1 4 3 -2 6 -13 5 -11 0 -14 -3 -6 -6z"/>
<path d="M1928 493 c6 -2 18 -2 25 0 6 3 1 5 -13 5 -14 0 -19 -2 -12 -5z"/>
<path d="M765 481 c-3 -5 -19 -12 -35 -16 -37 -8 -38 -18 -4 -34 29 -13 47 -6
24 9 -12 8 -10 10 8 10 12 0 22 -4 22 -10 0 -5 5 -10 10 -10 15 0 7 24 -10 31
-12 5 -9 9 10 17 24 10 24 11 3 11 -12 1 -24 -3 -28 -8z"/>
<path d="M1093 483 c9 -2 23 -2 30 0 6 3 -1 5 -18 5 -16 0 -22 -2 -12 -5z"/>
<path d="M2865 480 c-18 -8 -17 -9 8 -9 16 -1 26 3 22 9 -3 6 -7 10 -8 9 -1 0
-11 -4 -22 -9z"/>
<path d="M635 460 c3 -5 8 -10 11 -10 2 0 4 5 4 10 0 6 -5 10 -11 10 -5 0 -7
-4 -4 -10z"/>
<path d="M670 460 c0 -5 5 -10 10 -10 6 0 10 5 10 10 0 6 -4 10 -10 10 -5 0
-10 -4 -10 -10z"/>
<path d="M2160 445 c0 -17 -2 -17 -10 -5 -9 13 -11 13 -20 0 -16 -24 -13 -26
48 -24 81 2 99 5 84 11 -9 4 -10 8 -2 18 9 10 0 14 -45 17 -49 3 -55 1 -55
-17z m80 -11 c0 -2 -9 -4 -20 -4 -11 0 -20 4 -20 9 0 5 9 7 20 4 11 -3 20 -7
20 -9z"/>
<path d="M3817 459 c7 -7 15 -10 18 -7 3 3 -2 9 -12 12 -14 6 -15 5 -6 -5z"/>
<path d="M876 448 c3 -4 11 -5 19 -1 21 7 19 12 -4 10 -11 0 -18 -5 -15 -9z"/>
<path d="M930 447 c8 -7 21 -19 29 -27 12 -13 13 -13 8 3 -4 12 -1 17 11 18
14 0 14 2 -3 9 -11 5 -29 9 -40 9 -17 0 -18 -1 -5 -12z"/>
<path d="M2300 451 c0 -6 9 -9 20 -8 11 1 20 5 20 9 0 4 -9 8 -20 8 -11 0 -20
-4 -20 -9z"/>
<path d="M2756 451 c-17 -7 -18 -8 -3 -14 9 -3 19 -2 22 3 3 5 13 7 23 4 14
-5 15 -4 2 5 -17 12 -18 12 -44 2z"/>
<path d="M4380 450 c-11 -7 -6 -10 20 -10 26 0 31 3 20 10 -8 5 -17 10 -20 10
-3 0 -12 -5 -20 -10z"/>
<path d="M2485 440 c5 -8 -32 -40 -48 -41 -6 -1 8 -5 33 -9 50 -8 64 -4 37 11
-27 16 -20 25 19 26 31 1 35 -2 31 -19 -4 -12 -1 -18 6 -15 7 2 12 10 12 18 0
8 5 17 10 21 11 9 10 9 -57 12 -25 1 -45 -1 -43 -4z"/>
<path d="M3640 438 c0 -5 18 -8 40 -8 22 0 40 2 40 4 0 2 -18 6 -40 8 -22 2
-40 0 -40 -4z"/>
<path d="M4227 442 c7 -4 28 -7 48 -7 19 1 35 -2 35 -7 0 -4 8 -8 18 -7 10 0
12 3 4 6 -6 2 -10 8 -8 12 3 4 -21 8 -52 10 -32 1 -52 -2 -45 -7z"/>
<path d="M2420 430 c0 -5 5 -10 11 -10 5 0 7 5 4 10 -3 6 -8 10 -11 10 -2 0
-4 -4 -4 -10z"/>
<path d="M3148 433 c6 -2 18 -2 25 0 6 3 1 5 -13 5 -14 0 -19 -2 -12 -5z"/>
<path d="M3595 430 c4 -6 11 -8 16 -5 14 9 11 15 -7 15 -8 0 -12 -5 -9 -10z"/>
<path d="M895 420 c-4 -6 3 -10 14 -10 25 0 27 6 6 13 -8 4 -17 2 -20 -3z"/>
<path d="M980 426 c0 -2 7 -7 16 -10 8 -3 12 -2 9 4 -6 10 -25 14 -25 6z"/>
<path d="M1924 418 c-3 -4 2 -8 10 -8 8 0 17 4 20 8 3 5 -2 9 -10 9 -8 0 -17
-4 -20 -9z"/>
<path d="M3548 423 c6 -2 18 -2 25 0 6 3 1 5 -13 5 -14 0 -19 -2 -12 -5z"/>
<path d="M4764 410 c0 -13 7 -20 20 -20 18 0 19 1 1 20 -10 11 -19 20 -19 20
-1 0 -2 -9 -2 -20z"/>
<path d="M777 403 c3 -7 13 -11 24 -10 31 5 32 14 1 19 -22 3 -29 1 -25 -9z"/>
<path d="M1240 415 c0 -3 11 -10 25 -15 29 -11 77 2 56 15 -8 4 -16 3 -20 -3
-4 -7 -12 -8 -21 -2 -16 11 -40 13 -40 5z"/>
<path d="M2636 412 c-9 -15 52 -34 73 -23 11 6 36 11 57 11 21 0 34 3 31 6 -9
10 -156 14 -161 6z"/>
<path d="M3150 405 c0 -8 4 -15 10 -15 5 0 7 7 4 15 -4 8 -8 15 -10 15 -2 0
-4 -7 -4 -15z"/>
<path d="M3621 411 c-1 -7 -7 -11 -16 -7 -8 3 -15 1 -15 -4 0 -5 10 -9 23 -9
12 1 29 -1 38 -5 10 -4 20 -3 24 3 4 7 -4 11 -19 11 -13 0 -27 6 -29 13 -4 9
-6 9 -6 -2z"/>
<path d="M3933 414 c14 -15 -23 -34 -55 -28 -68 12 -140 16 -149 7 -4 -4 9 -8
29 -9 77 -2 93 -4 88 -13 -3 -5 40 -9 97 -9 56 -1 96 1 90 4 -20 9 -15 22 15
38 26 15 24 15 -47 16 -41 0 -72 -3 -68 -6z m37 -14 c0 -5 7 -10 15 -10 8 0
15 -4 15 -10 0 -13 -11 -12 -32 4 -20 15 -23 26 -8 26 6 0 10 -4 10 -10z m47
4 c-3 -3 -12 -4 -19 -1 -8 3 -5 6 6 6 11 1 17 -2 13 -5z"/>
<path d="M4468 413 c7 -3 16 -2 19 1 4 3 -2 6 -13 5 -11 0 -14 -3 -6 -6z"/>
<path d="M698 403 c6 -2 18 -2 25 0 6 3 1 5 -13 5 -14 0 -19 -2 -12 -5z"/>
<path d="M1960 399 c0 -5 5 -7 10 -4 6 3 10 8 10 11 0 2 -4 4 -10 4 -5 0 -10
-5 -10 -11z"/>
<path d="M2836 398 c3 -4 14 -8 24 -8 10 0 21 4 24 8 3 5 -8 9 -24 9 -16 0
-27 -4 -24 -9z"/>
<path d="M4243 385 c-13 -13 -23 -27 -23 -30 0 -10 82 3 93 14 11 11 -8 16
-40 12 -8 -1 -10 5 -7 14 8 20 3 18 -23 -10z"/>
<path d="M4048 383 c6 -2 10 -8 7 -13 -3 -4 14 -4 36 1 30 7 45 6 57 -3 11 -9
13 -9 9 -1 -5 8 3 13 25 16 18 2 -7 4 -57 5 -49 0 -84 -2 -77 -5z"/>
<path d="M4468 383 c6 -2 18 -2 25 0 6 3 1 5 -13 5 -14 0 -19 -2 -12 -5z"/>
<path d="M3430 370 c0 -13 18 -22 24 -11 3 5 -1 11 -9 15 -8 3 -15 1 -15 -4z"/>
<path d="M4795 370 c-3 -5 1 -10 9 -10 9 0 16 5 16 10 0 6 -4 10 -9 10 -6 0
-13 -4 -16 -10z"/>
<path d="M3628 363 c7 -3 16 -2 19 1 4 3 -2 6 -13 5 -11 0 -14 -3 -6 -6z"/>
<path d="M3753 363 c9 -2 23 -2 30 0 6 3 -1 5 -18 5 -16 0 -22 -2 -12 -5z"/>
<path d="M708 343 c7 -3 16 -2 19 1 4 3 -2 6 -13 5 -11 0 -14 -3 -6 -6z"/>
</g>
</svg>
